<svg width="254" height="177" viewBox="0 0 254 177" fill="none" xmlns="http://www.w3.org/2000/svg">
<path d="M51.5569 174.791C40.0731 169.298 30.8152 159.269 26.2116 147.375C21.6079 135.482 21.7597 121.875 26.6163 110.132C29.6011 102.875 35.2165 95.7694 43.0073 94.711C49.7862 93.8543 56.2111 97.7348 62.9901 98.5412C64.0019 98.642 65.1148 98.6924 66.0254 98.2388C68.4537 96.9285 67.8972 93.4007 67.2396 90.6793C65.8231 84.783 65.9243 78.3826 68.5043 72.9398C71.0844 67.4466 76.3457 63.0621 82.3658 62.4069C88.2848 61.7518 93.9508 64.574 99.2121 67.2954C107.812 71.7303 116.362 76.1652 124.962 80.6C126.53 81.4064 128.149 82.2127 129.92 82.3135C133.208 82.4647 136.041 79.8441 137.711 76.9715C139.329 74.0989 140.19 70.8231 141.96 68.0513C147.474 59.1312 162.095 57.9721 168.924 65.9347C175.906 74.0485 173.174 87.3028 165.636 94.8622C172.01 91.9392 179.194 88.9154 185.821 91.2337C191.285 93.1487 195.079 98.4908 196.344 104.135C197.608 109.78 196.748 115.726 195.18 121.27C198.823 122.026 202.465 120.312 206.158 119.708C212.583 118.7 219.109 121.421 224.32 125.251C239.244 136.338 245.163 158.059 237.827 175.144L51.5569 174.791Z" fill="#FFE6C7"/>
<path d="M88.6957 64.1199C95.6264 65.6318 102.355 67.8492 108.83 70.7722C115.205 73.6448 121.326 77.1725 126.992 81.305C130.28 83.6737 133.366 86.2439 136.351 89.0157C136.654 89.3181 137.16 88.8141 136.806 88.5621C131.595 83.7241 125.929 79.4404 119.808 75.8118C113.737 72.1833 107.262 69.1595 100.534 66.8413C96.7394 65.531 92.844 64.4223 88.898 63.5655C88.4427 63.3639 88.291 64.0191 88.6957 64.1199Z" fill="#FFF1DB"/>
<path d="M173.02 91.0316C177.27 88.5118 182.582 87.9574 187.287 89.5197C189.765 90.3261 191.688 91.7876 193.408 93.7027C194.976 95.5169 195.684 97.684 195.786 100.053C195.836 101.01 195.786 101.968 195.684 102.976C195.634 103.631 195.583 104.286 195.684 104.891C195.735 105.344 196.393 105.143 196.342 104.689C196.241 104.084 196.342 103.429 196.393 102.824C196.443 101.867 196.494 100.909 196.443 99.9518C196.342 97.684 195.684 95.5169 194.268 93.7027C192.649 91.6364 190.676 90.0741 188.248 89.1166C185.87 88.2094 183.29 87.8063 180.761 87.9574C177.928 88.1086 175.145 88.9654 172.666 90.4269C172.312 90.6789 172.666 91.2836 173.02 91.0316Z" fill="#FFF1DB"/>
<path d="M215.372 123.084C222.657 123.89 229.486 127.519 234.343 132.962C239.553 138.808 241.982 146.569 241.425 154.33C241.122 158.815 239.756 163.199 237.479 167.08C237.277 167.433 237.833 167.786 238.086 167.433C242.235 160.377 243.297 151.709 241.122 143.847C239.048 136.489 233.989 130.19 227.361 126.36C223.719 124.243 219.621 122.882 215.422 122.429C214.967 122.378 214.967 123.034 215.372 123.084Z" fill="#FFF1DB"/>
<path d="M30.5217 106.755C26.6769 109.023 24.5521 113.458 23.1862 117.54C21.5674 122.378 20.8085 127.569 20.6567 132.659C20.3532 143.394 24.3498 153.977 31.4323 162.04C35.4289 166.626 40.3866 170.356 45.9514 172.825C46.3562 172.976 46.7103 172.422 46.3056 172.22C36.5924 167.937 28.8522 159.772 24.6533 150.046C22.5791 145.157 21.365 139.916 21.3144 134.625C21.2638 129.686 21.8709 124.697 23.1862 119.959C24.451 115.323 26.5251 109.88 30.8758 107.31C31.2299 107.108 30.8758 106.503 30.5217 106.755Z" fill="#FFF1DB"/>
<path d="M224.826 122.076C225.748 122.076 226.495 121.331 226.495 120.413C226.495 119.494 225.748 118.749 224.826 118.749C223.904 118.749 223.156 119.494 223.156 120.413C223.156 121.331 223.904 122.076 224.826 122.076Z" fill="#FAD034" stroke="#FAD034" stroke-width="0.1198" stroke-miterlimit="10"/>
<path d="M17.5678 150.55C19.0765 150.55 20.2996 149.332 20.2996 147.829C20.2996 146.326 19.0765 145.107 17.5678 145.107C16.059 145.107 14.8359 146.326 14.8359 147.829C14.8359 149.332 16.059 150.55 17.5678 150.55Z" stroke="#FAD034" stroke-width="0.5934" stroke-miterlimit="10"/>
<path d="M192.501 34.4869C193.562 34.4869 194.423 33.6295 194.423 32.5718C194.423 31.5142 193.562 30.6568 192.501 30.6568C191.439 30.6568 190.578 31.5142 190.578 32.5718C190.578 33.6295 191.439 34.4869 192.501 34.4869Z" fill="#FF8D77"/>
<path d="M182.788 72.1329C182.788 72.7376 182.283 73.2416 181.675 73.2416C181.068 73.2416 180.562 72.7376 180.562 72.1329C180.562 71.5281 181.068 71.0241 181.675 71.0241C182.283 71.0241 182.788 71.5281 182.788 72.1329Z" fill="#C2A7EB"/>
<path d="M155.777 74.9558C155.777 75.5101 155.322 75.9637 154.766 75.9637C154.209 75.9637 153.754 75.5101 153.754 74.9558C153.754 74.4014 154.209 73.9478 154.766 73.9478C155.322 73.9478 155.777 74.4014 155.777 74.9558Z" fill="#72DEE8"/>
<path d="M135.64 49.0011C136.227 49.0011 136.703 48.5273 136.703 47.9428C136.703 47.3583 136.227 46.8845 135.64 46.8845C135.054 46.8845 134.578 47.3583 134.578 47.9428C134.578 48.5273 135.054 49.0011 135.64 49.0011Z" fill="#FF859D"/>
<path d="M73.7146 54.1418C73.7146 54.7466 73.2593 55.2001 72.6522 55.2001C72.0452 55.2001 71.5898 54.7466 71.5898 54.1418C71.5898 53.5371 72.0452 53.0835 72.6522 53.0835C73.2593 53.0835 73.7146 53.5371 73.7146 54.1418Z" fill="#FF859D" stroke="#FF859D" stroke-width="0.6233" stroke-miterlimit="10"/>
<path d="M94.4083 48.0942C95.2465 48.0942 95.926 47.4173 95.926 46.5823C95.926 45.7473 95.2465 45.0704 94.4083 45.0704C93.5701 45.0704 92.8906 45.7473 92.8906 46.5823C92.8906 47.4173 93.5701 48.0942 94.4083 48.0942Z" stroke="#FAD034" stroke-width="0.8398" stroke-miterlimit="10"/>
<path d="M182.887 106.504C183.977 106.504 184.86 105.624 184.86 104.538C184.86 103.453 183.977 102.573 182.887 102.573C181.797 102.573 180.914 103.453 180.914 104.538C180.914 105.624 181.797 106.504 182.887 106.504Z" stroke="#FF859D" stroke-width="0.7612" stroke-miterlimit="10"/>
<path d="M40.935 59.7354C40.935 60.4914 40.3279 61.0961 39.569 61.0961C38.8102 61.0961 38.2031 60.4914 38.2031 59.7354C38.2031 58.9795 38.8102 58.3747 39.569 58.3747C40.3279 58.3747 40.935 58.9795 40.935 59.7354Z" stroke="#ED7321" stroke-width="0.7612" stroke-miterlimit="10"/>
<path d="M213.396 21.5354C213.396 22.2914 212.789 22.8961 212.03 22.8961C211.271 22.8961 210.664 22.2914 210.664 21.5354C210.664 20.7795 211.271 20.1747 212.03 20.1747C212.789 20.1747 213.396 20.7795 213.396 21.5354Z" stroke="#C2A7EB" stroke-width="0.7612" stroke-miterlimit="10"/>
<path d="M78.2709 115.928C78.2709 116.684 77.6638 117.289 76.905 117.289C76.1461 117.289 75.5391 116.684 75.5391 115.928C75.5391 115.172 76.1461 114.567 76.905 114.567C77.6638 114.567 78.2709 115.172 78.2709 115.928Z" stroke="#C2A7EB" stroke-miterlimit="10"/>
<path d="M102.354 17.8561C103.109 17.8561 103.72 17.2469 103.72 16.4954C103.72 15.7439 103.109 15.1347 102.354 15.1347C101.6 15.1347 100.988 15.7439 100.988 16.4954C100.988 17.2469 101.6 17.8561 102.354 17.8561Z" stroke="#C2A7EB" stroke-miterlimit="10"/>
<path d="M66.6889 7.12178C66.6889 7.87773 66.0818 8.48248 65.3229 8.48248C64.5641 8.48248 63.957 7.87773 63.957 7.12178C63.957 6.36584 64.5641 5.76108 65.3229 5.76108C66.0818 5.76108 66.6889 6.36584 66.6889 7.12178Z" stroke="#FFC0C0" stroke-miterlimit="10"/>
<path d="M176.157 18.965C177.246 18.965 178.13 18.085 178.13 16.9995C178.13 15.914 177.246 15.0341 176.157 15.0341C175.067 15.0341 174.184 15.914 174.184 16.9995C174.184 18.085 175.067 18.965 176.157 18.965Z" stroke="#FF859D" stroke-width="0.7612" stroke-miterlimit="10"/>
<path d="M90.2706 59.433L89.0565 59.9874L88.5 58.5259L89.7142 57.9715C90.0683 57.8203 90.5236 58.0219 90.6754 58.3747C90.7765 58.7779 90.6248 59.2314 90.2706 59.433Z" fill="#FFB991" stroke="#FFB991" stroke-width="0.8532" stroke-miterlimit="10"/>
<path d="M80.7084 62.6584L81.8213 61.9528L82.5296 63.3135L81.4166 64.0191C81.0625 64.2207 80.6578 64.1199 80.4554 63.7167C80.2531 63.3639 80.4048 62.86 80.7084 62.6584Z" fill="#FFB991" stroke="#FFB991" stroke-width="0.8532" stroke-miterlimit="10"/>
<path d="M80.9546 63.011L81.4099 62.7086L81.7134 63.263L81.2581 63.5654C81.1064 63.6662 80.9546 63.6158 80.8534 63.4646C80.7522 63.263 80.8028 63.1118 80.9546 63.011Z" fill="#D46A4C" stroke="#D46A4C" stroke-width="0.8532" stroke-miterlimit="10"/>
<path d="M89.9121 58.4251L89.4062 58.6267L89.6086 59.2314L90.1145 59.0299C90.2663 58.9795 90.3169 58.7779 90.2663 58.6267C90.2157 58.4251 90.0639 58.3243 89.9121 58.4251Z" fill="#D46A4C" stroke="#D46A4C" stroke-width="0.8532" stroke-miterlimit="10"/>
<path d="M101.195 38.3676C101.195 38.3676 96.7428 35.5958 97.3499 35.3438C98.0075 35.0414 99.2217 36.7549 100.132 35.747C101.043 34.739 98.9687 28.3891 99.424 28.5907C99.8793 28.7923 101.245 31.816 101.245 31.816C101.245 31.816 100.233 27.482 100.689 27.3308C101.144 27.1796 102.409 31.0601 102.409 31.0601C102.409 31.0601 102.055 26.978 102.51 27.0284C102.965 27.1292 103.37 30.9593 103.37 30.9593C103.37 30.9593 103.572 28.2883 103.926 28.9435C104.281 29.5986 104.23 34.8398 104.23 34.8398L101.195 38.3676Z" fill="#FFB991" stroke="#FFB991" stroke-width="0.954" stroke-miterlimit="10"/>
<path d="M63.3528 51.37C63.3528 51.37 67.2482 48.195 66.7423 47.8926C66.4387 47.691 65.3764 47.9934 64.6681 48.2454C64.3646 48.3462 64.061 48.0438 64.061 47.691C64.1622 46.5823 64.4152 44.6168 64.6681 43.2057C65.0222 41.1395 64.4658 40.9379 63.3022 44.3145C62.1386 47.691 63.454 41.1899 62.9987 41.1899C62.5434 41.1395 61.8351 44.768 61.4304 44.8688C61.0257 44.9696 61.8351 41.3411 61.1269 41.0387C60.4186 40.7363 60.2162 44.5664 59.9633 44.7176C59.7104 44.8688 59.8621 42.1978 59.5586 42.1474C58.4962 41.9458 58.6986 49.0013 58.7997 49.5053C58.9515 50.0596 63.3528 51.37 63.3528 51.37Z" fill="#FFB991" stroke="#FFB991" stroke-width="0.954" stroke-miterlimit="10"/>
<path d="M111.113 167.18L112.884 174.841H124.57V173.883L117.943 170.053L117.437 167.332L111.113 167.18Z" fill="#FFB991"/>
<path d="M78.7888 167.281L77.0182 174.891H65.332V173.984L72.0098 170.104L72.8193 167.433L78.7888 167.281Z" fill="#FFB991"/>
<path d="M71.9044 170.104L73.8773 172.22C74.3832 172.775 75.2433 172.775 75.7491 172.271L78.0257 170.053L76.9633 174.891H65.2266V173.984L71.9044 170.104Z" fill="#72DEE8" stroke="#72DEE8" stroke-width="0.954" stroke-miterlimit="10"/>
<path d="M118.039 170.053L116.066 172.17C115.56 172.724 114.7 172.724 114.194 172.22L111.918 170.003L112.98 174.841H124.717V173.934L118.039 170.053Z" fill="#72DEE8" stroke="#72DEE8" stroke-width="0.954" stroke-miterlimit="10"/>
<path d="M88.4487 106.705L72.8672 167.483L79.3426 167.332L99.376 124.495C99.9325 122.731 101.906 122.781 102.513 124.495L111.265 167.584L118.448 167.483C118.448 167.483 120.421 125.301 109.241 96.6761L88.4487 106.705Z" fill="#00263B" stroke="#00263B" stroke-width="0.954" stroke-miterlimit="10"/>
<path d="M63.9104 51.7728L62.7469 55.3005C61.1786 60.6929 62.5951 66.6397 66.5917 70.3186C71.3471 74.7031 77.9743 76.3662 84.298 74.048L94.6688 70.2682C101.903 67.6476 106.658 60.5417 107.215 52.6799C107.518 48.4466 105.849 44.3141 102.915 41.5927L100.436 39.2745L104.635 34.6884C104.635 34.6884 129.525 57.3668 106.102 78.4828L112.426 99.4478C112.426 99.4478 104.281 103.278 88.0416 106.654L80.4026 88.4109C80.4026 88.4109 48.4301 87.7558 58.5985 49.8073L63.9104 51.7728Z" fill="#72DEE8" stroke="#72DEE8" stroke-width="0.954" stroke-miterlimit="10"/>
<path d="M101.597 37.9138L100.433 39.2745L102.912 41.5928C105.846 44.3646 107.516 48.4971 107.212 52.68C106.656 60.5418 101.9 67.6477 94.666 70.2683L83.8398 73.9977L94.6154 71.629C94.6154 71.629 107.566 69.3108 109.084 53.9903C109.337 50.6137 108.78 43.1551 101.597 37.9138Z" fill="#72DEE8" stroke="#72DEE8" stroke-width="0.954" stroke-miterlimit="10"/>
<path d="M112.426 99.3974C112.426 99.3974 104.281 103.227 88.0416 106.604L80.4026 88.3606C80.4026 88.3606 48.4301 87.7054 58.5985 49.7569L60.015 50.2105C60.015 50.2105 47.9242 83.0689 80.3014 86.8487L112.426 99.3974Z" fill="#72DEE8" stroke="#72DEE8" stroke-width="0.954" stroke-miterlimit="10"/>
<path d="M83.332 73.6446L94.3099 69.9657C94.3099 69.9657 94.8664 74.6021 90.7181 76.366C86.5698 78.1802 83.332 73.6446 83.332 73.6446Z" fill="#FFC0C0"/>
<path d="M89.6651 63.8177L92.9028 70.974C92.9028 70.974 91.031 78.0799 84.9097 73.645L83.7461 65.8336L89.6651 63.8177Z" fill="#FFB991" stroke="#FFB991" stroke-width="0.8532" stroke-miterlimit="10"/>
<path d="M84.5977 72.8891L84.6988 73.7458C85.3059 74.1994 87.8354 76.2152 90.3143 74.9049" fill="#D46A4C"/>
<path d="M87.1286 57.3671L89.9616 64.3218C89.9616 64.3218 88.0392 70.3189 83.7897 66.3376L82.9297 58.4254L87.1286 57.3671Z" fill="#D46A4C"/>
<path d="M87.184 66.1359C84.6039 67.4462 82.4286 65.7327 81.6697 63.2129L81.6191 63.0113C80.8097 60.5419 81.6697 57.2158 83.8956 56.359C86.1722 55.5023 89.0052 57.4174 89.764 59.8868L89.8146 60.0884C90.624 62.5578 90.3205 65.1784 87.184 66.1359Z" fill="#FFB991" stroke="#FFB991" stroke-width="0.8532" stroke-miterlimit="10"/>
<path d="M80.1484 57.4172L80.4014 50.5633C80.4014 49.8578 81.1602 49.505 81.6661 49.9586L86.5733 54.4439C86.5733 54.4439 83.1838 53.4863 80.1484 57.4172Z" fill="#FAD034" stroke="#FAD034" stroke-width="0.2752" stroke-miterlimit="10"/>
<path d="M79.4297 49.6064L82.4144 55.5027" stroke="#FFC0C0" stroke-width="1.2551" stroke-miterlimit="10"/>
<path d="M81.2539 49.3545L84.1881 55.2508" stroke="#FFC0C0" stroke-width="1.2551" stroke-miterlimit="10"/>
<path d="M78.7734 51.8239L81.7076 57.7203" stroke="#FFC0C0" stroke-width="1.2551" stroke-miterlimit="10"/>
<path d="M82.6719 49.0016L85.6061 54.898" stroke="#FFC0C0" stroke-width="1.2551" stroke-miterlimit="10"/>
<path d="M86.7228 64.2207C85.9134 64.5231 85.0533 64.1199 84.7498 63.2127L84.6992 63.1119L87.5828 61.9528L87.6334 62.0536C87.8864 62.9608 87.4816 63.9183 86.7228 64.2207Z" fill="#FFC0C0"/>
<path d="M80.9066 58.3243C80.8054 57.1651 81.6655 56.51 82.2725 55.5021C82.8796 54.5445 83.5879 52.9822 84.6502 52.7807C84.9538 52.7303 85.662 53.2846 85.915 53.5366C86.0667 53.6878 86.0161 54.1414 86.0667 54.2925C86.4715 55.7036 85.9656 57.3667 84.8526 58.1731C84.5996 58.3747 84.2961 58.5258 83.9926 58.5762C83.5879 58.677 83.1831 58.5762 82.7784 58.5258C82.2219 58.4251 81.6149 58.2739 81.4125 57.7195" fill="#162447"/>
<path d="M81.2182 58.3238C81.1171 57.1647 82.0783 56.4088 82.6347 55.5016C83.09 54.7457 83.5453 53.637 84.4054 53.1834C84.5571 53.0826 84.7089 53.0322 84.8607 53.133C85.063 53.2338 85.2654 53.385 85.4172 53.4858C85.5689 53.5866 85.6701 53.6874 85.7207 53.8386C85.7713 54.0906 85.7713 54.2921 85.8219 54.4937C86.0748 55.5016 85.8219 56.7112 85.1136 57.5175C84.6583 58.0719 84.0512 58.3742 83.2924 58.3238C82.7865 58.2734 81.8759 58.223 81.6735 57.6687C81.5724 57.3663 81.0159 57.4671 81.1676 57.8199C81.4206 58.4246 81.9771 58.6766 82.5336 58.7774C83.2924 58.9286 84.0512 58.979 84.7595 58.5758C85.8725 57.8703 86.4795 56.5096 86.4289 55.2497C86.4289 54.9473 86.3783 54.6449 86.2772 54.3425C86.2266 54.0906 86.2266 53.7882 86.1254 53.5866C86.0748 53.385 85.8725 53.2842 85.7207 53.133C85.4677 52.9314 85.2148 52.7802 84.9618 52.6291C84.5065 52.4275 84.0006 52.7298 83.6465 53.0322C83.1912 53.4354 82.8371 53.9898 82.5336 54.5441C82.1794 55.1489 81.7747 55.7536 81.37 56.308C80.9147 56.9127 80.6112 57.5679 80.6617 58.3238C80.6617 58.6766 81.2182 58.6766 81.2182 58.3238Z" fill="#162447"/>
<path d="M85.5664 55.0487C85.8699 54.8471 86.7806 54.7967 87.0841 55.0487C87.3876 55.3007 87.6406 55.5023 87.7923 55.855C87.9441 56.2582 87.9947 56.9134 87.9441 56.9134C87.8429 56.9638 87.1347 56.5606 87.0335 56.5102C86.73 56.359 86.4264 56.1574 86.1229 55.9054" fill="#162447"/>
<path d="M85.6712 55.2505C85.7218 55.2505 85.7724 55.2001 85.6712 55.2505C85.7724 55.2001 85.7724 55.2001 85.823 55.2001C85.8736 55.2001 85.9242 55.2001 85.9242 55.1497H85.9748C85.9748 55.1497 86.0759 55.1497 86.0253 55.1497C86.2277 55.1497 86.3795 55.0993 86.5818 55.1497C86.683 55.1497 86.5818 55.1497 86.6324 55.1497H86.683C86.7336 55.1497 86.7336 55.1497 86.7842 55.2001H86.8348C86.8854 55.2001 86.7842 55.2001 86.8348 55.2001C86.8348 55.2001 86.8854 55.2001 86.8854 55.2505C86.936 55.2505 86.8348 55.2001 86.8854 55.2505C87.0371 55.4016 87.2395 55.5024 87.3913 55.704C87.543 55.8552 87.5936 56.0568 87.6442 56.2584C87.6948 56.46 87.6948 56.6112 87.6948 56.7623C87.6948 56.8127 87.6948 56.8128 87.6948 56.8631C87.6948 56.9135 87.6948 56.8127 87.6948 56.8127C87.7454 56.7624 87.7454 56.7624 87.796 56.712C87.8466 56.6616 87.8466 56.6112 87.9478 56.6112C87.8972 56.6112 87.9983 56.6112 87.9983 56.6112H87.9478C87.8972 56.6112 87.8972 56.6112 87.8466 56.5608C87.8466 56.5608 87.796 56.5608 87.8466 56.5608H87.796C87.7454 56.5608 87.7454 56.5104 87.6948 56.5104C87.6442 56.46 87.543 56.46 87.4924 56.4096C87.0877 56.208 86.7336 56.0064 86.3795 55.704C86.2783 55.6032 86.1265 55.6032 85.9748 55.704C85.8736 55.8048 85.8736 56.0064 85.9748 56.1072C86.3289 56.4096 86.7842 56.6616 87.1889 56.9135C87.4419 57.0647 88.0995 57.4679 88.2513 57.0143C88.3019 56.8127 88.2513 56.6112 88.2513 56.4096C88.2007 56.1576 88.1501 55.8552 88.0489 55.6032C87.9477 55.3513 87.7454 55.1497 87.4924 54.9985C87.2901 54.8473 87.1383 54.6961 86.8854 54.6457C86.6324 54.5953 86.3795 54.5953 86.1265 54.5953C85.8736 54.5953 85.6206 54.6457 85.4183 54.7969C85.1147 54.9985 85.3677 55.452 85.6712 55.2505Z" fill="#162447"/>
<path d="M81.9175 56.6613C81.5128 56.3085 80.9563 56.5101 80.5516 56.8125C80.0457 57.266 79.7928 57.9212 79.7422 58.6267C79.6916 59.3323 79.8939 59.9874 80.1469 60.6426C80.2987 60.945 80.8046 61.6001 81.1081 61.5497C81.2599 61.4993 81.5128 59.1307 81.614 58.274" fill="#162447"/>
<path d="M84.4522 61.6504C84.5919 61.6504 84.7051 61.5376 84.7051 61.3984C84.7051 61.2593 84.5919 61.1465 84.4522 61.1465C84.3125 61.1465 84.1992 61.2593 84.1992 61.3984C84.1992 61.5376 84.3125 61.6504 84.4522 61.6504Z" fill="#162447"/>
<path d="M86.5733 60.7937C86.7129 60.7937 86.8262 60.6809 86.8262 60.5417C86.8262 60.4026 86.7129 60.2898 86.5733 60.2898C86.4336 60.2898 86.3203 60.4026 86.3203 60.5417C86.3203 60.6809 86.4336 60.7937 86.5733 60.7937Z" fill="#162447"/>
<path d="M86.371 61.9023L85.511 62.2047C85.4098 62.2551 85.3086 62.1543 85.3086 62.0535L85.4098 61.096C85.4098 60.9952 85.5615 60.8944 85.6627 60.9952L86.4216 61.6504C86.5228 61.7512 86.4722 61.9023 86.371 61.9023Z" fill="#E88A6F"/>
<path d="M83.0321 60.7438C82.8803 60.9958 82.9309 60.0886 83.2344 59.8367C83.538 59.5847 83.9427 59.6351 84.1451 59.8871C84.1451 59.8871 83.4368 60.0886 83.0321 60.7438Z" fill="#162447"/>
<path d="M86.8285 58.8787C87.132 58.9291 86.4238 58.3244 86.0696 58.4252C85.7155 58.4756 85.412 58.778 85.4626 59.1307C85.4626 59.1307 86.0191 58.7276 86.8285 58.8787Z" fill="#162447"/>
<path d="M64.5153 47.9931L63.4023 48.5474L64.5659 45.826C64.5153 45.826 64.2624 47.8923 64.5153 47.9931Z" fill="#D46A4C"/>
<path d="M72.7167 170.809L69.8331 172.623C69.2261 172.976 68.4672 172.825 68.0625 172.22" stroke="#FFFCF2" stroke-width="0.3151" stroke-miterlimit="10" stroke-linecap="square" stroke-linejoin="round"/>
<path d="M116.98 170.809L119.864 172.623C120.471 172.976 121.23 172.825 121.635 172.22" stroke="#FFFCF2" stroke-width="0.3151" stroke-miterlimit="10" stroke-linecap="square" stroke-linejoin="round"/>
<path d="M162.81 76.9712C162.81 76.9712 164.935 73.5946 167.059 73.897C169.184 74.1994 182.388 84.6818 182.388 84.6818C182.388 84.6818 170.803 100.254 156.941 84.7322L162.81 76.9712Z" fill="#162447"/>
<path d="M167.162 74.7031C171.563 77.1725 176.066 79.4907 180.568 81.809C181.479 82.2625 182.339 82.7161 183.25 83.1193C183.553 83.2705 183.806 82.8169 183.503 82.6657C181.53 81.7586 179.607 80.7002 177.634 79.6923C175.105 78.382 172.525 77.0213 169.995 75.6606C169.135 75.207 168.225 74.7031 167.365 74.2495C167.112 74.0479 166.859 74.5015 167.162 74.7031Z" fill="#162447"/>
<path d="M150.375 93.0476L141.573 85.8914C138.79 83.0692 137.171 79.743 136.615 75.1065L136.008 69.0086C134.895 64.2209 135.249 62.1547 135.249 62.1547L135.907 65.2792L136.008 60.8443C136.008 60.7436 136.21 61.0963 136.21 61.1971L136.817 64.8257L137.171 60.3908C137.171 60.29 137.323 60.29 137.323 60.3908L137.981 64.8761C137.981 64.8761 138.436 60.6428 138.638 61.0963C138.891 61.5499 139.043 66.5895 139.043 66.5895C139.043 66.5895 140.257 63.5657 140.409 64.0697C140.51 64.3721 139.954 66.4383 139.549 67.8494C139.296 68.7566 139.195 69.7141 139.347 70.6212L139.751 72.9899C140.409 76.6184 142.635 79.6422 144.962 82.5652C147.542 85.7402 156.294 90.0239 156.294 90.0239L150.375 93.0476Z" fill="#FFB991" stroke="#FFB991" stroke-width="0.8588" stroke-miterlimit="10" stroke-linecap="round" stroke-linejoin="round"/>
<path d="M139.348 65.5316C139.348 65.5316 138.843 66.2875 138.539 66.7915L139.247 63.8181L139.348 65.5316Z" fill="#D46A4C"/>
<path d="M139.796 70.7728L136.204 72.7383L136.052 70.924C136.002 70.924 137.165 71.5288 139.796 70.7728Z" fill="#D46A4C"/>
<path d="M154.056 169.55L154.562 175.093L143.129 174.992L148.947 171.969L149.706 169.398L154.056 169.55Z" fill="#FFB991"/>
<path d="M148.947 171.968L143.129 174.992L154.562 175.093L148.947 171.968Z" fill="#00263B"/>
<path d="M167.252 169.348L166.848 175.093L178.281 174.992L172.463 171.968L171.148 169.398L167.252 169.348Z" fill="#FFB991"/>
<path d="M172.463 171.968L178.281 174.992L166.848 175.093L172.463 171.968Z" fill="#00263B"/>
<path d="M149.913 106.554L160.537 111.594C160.537 111.594 163.168 108.57 172.78 169.247L167.417 169.096L153.1 122.026L154.112 169.6L147.536 169.096C147.536 169.096 140.858 120.615 143.994 113.257C147.131 105.899 149.913 106.554 149.913 106.554Z" fill="#72DEE8" stroke="#72DEE8" stroke-width="0.954" stroke-miterlimit="10"/>
<path d="M162.962 82.0614C162.962 82.0614 160.331 89.6712 160.027 90.2256C160.027 90.2256 161.393 94.5093 165.693 92.2414C165.693 92.2414 165.693 90.276 166.149 85.3876L162.962 82.0614Z" fill="#FFB991" stroke="#FFB991" stroke-width="0.8863" stroke-miterlimit="10" stroke-linecap="round" stroke-linejoin="round"/>
<path d="M162.299 93.098C162.299 93.098 161.489 94.5595 165.789 92.3421C165.789 92.3421 165.992 90.7798 166.042 89.8727L162.299 93.098Z" fill="#D46A4C"/>
<path d="M166.398 85.5387C165.841 86.3955 163.919 86.6979 163.059 86.1939C161.997 85.5891 162.148 83.4725 162.502 82.7165C162.806 82.0614 164.83 82.3134 165.639 82.8173C166.499 83.3717 166.954 84.682 166.398 85.5387Z" fill="#D46A4C"/>
<path d="M170.097 83.5734L168.984 82.7671L169.844 81.5072L170.957 82.3135C171.312 82.5655 171.362 83.0191 171.16 83.3719C170.907 83.7246 170.451 83.8254 170.097 83.5734Z" fill="#FFB991" stroke="#FFB991" stroke-width="0.8622" stroke-miterlimit="10"/>
<path d="M162.712 77.9291L163.926 78.5338L163.218 79.8945L162.004 79.2898C161.649 79.0882 161.498 78.6346 161.7 78.2818C161.852 77.8787 162.307 77.7779 162.712 77.9291Z" fill="#FFB991" stroke="#FFB991" stroke-width="0.8622" stroke-miterlimit="10"/>
<path d="M162.463 78.2818L162.968 78.5338L162.665 79.0881L162.159 78.8361C162.007 78.7353 161.957 78.5842 162.007 78.433C162.108 78.2818 162.311 78.181 162.463 78.2818Z" fill="#D46A4C" stroke="#D46A4C" stroke-width="0.8532" stroke-miterlimit="10"/>
<path d="M170.759 82.7167L170.303 82.3639L169.949 82.8678L170.405 83.2206C170.556 83.3214 170.759 83.271 170.86 83.1702C170.91 83.019 170.91 82.8174 170.759 82.7167Z" fill="#D46A4C" stroke="#D46A4C" stroke-width="0.8532" stroke-miterlimit="10"/>
<path d="M169.393 76.921C171.467 78.3825 171.619 81.0535 170.152 83.1198L170 83.2709C168.533 85.3372 165.599 86.0427 163.879 84.7828C162.564 83.7245 161.451 80.2976 162.918 78.2313L163.019 78.0801C164.486 75.9635 167.319 75.4595 169.393 76.921Z" fill="#FFB991" stroke="#FFB991" stroke-width="0.8622" stroke-miterlimit="10"/>
<path d="M164.834 83.5229L164.682 83.4221C164.126 83.0694 163.923 82.3638 164.227 81.8094L166.453 83.1197C166.149 83.6237 165.441 83.8253 164.834 83.5229Z" fill="#FFC0C0"/>
<path d="M167.268 81.5068C167.268 81.658 167.166 81.7588 167.015 81.7588C166.863 81.7588 166.762 81.658 166.762 81.5068C166.762 81.3556 166.863 81.2548 167.015 81.2548C167.166 81.2548 167.268 81.3556 167.268 81.5068Z" fill="#162447"/>
<path d="M165.19 80.7513C165.33 80.7513 165.443 80.6385 165.443 80.4993C165.443 80.3601 165.33 80.2473 165.19 80.2473C165.051 80.2473 164.938 80.3601 164.938 80.4993C164.938 80.6385 165.051 80.7513 165.19 80.7513Z" fill="#162447"/>
<path d="M165.849 82.1624L165.242 81.86C165.191 81.8096 165.141 81.7088 165.242 81.6584L165.849 81.2048C165.9 81.1544 166.051 81.2048 166.051 81.3056V82.0616C166.001 82.112 165.9 82.1624 165.849 82.1624Z" fill="#E88A6F"/>
<path d="M168.127 81.1039C168.228 81.3055 168.278 80.7007 168.127 80.4991C167.975 80.2975 167.671 80.2471 167.52 80.3983C167.52 80.3983 167.924 80.5999 168.127 81.1039Z" fill="#162447"/>
<path d="M164.937 79.1383C164.735 79.1383 165.241 78.8359 165.494 78.8863C165.747 78.9367 165.899 79.1887 165.797 79.3903C165.848 79.4407 165.494 79.1383 164.937 79.1383Z" fill="#162447"/>
<path d="M160.128 89.0162C160.128 89.0162 160.128 91.9392 161.899 92.6951C163.416 93.3503 165.086 92.8463 165.845 91.1833L168.526 91.4856C168.526 91.4856 171.156 99.9522 166.603 106.101C162.303 111.947 161.393 112.199 161.241 112.35C161.089 112.501 149.454 106.907 149.403 107.008C149.352 107.058 152.438 102.674 151.578 100.154C150.718 97.634 152.236 95.1646 152.185 94.6606C152.135 94.1566 149.555 92.7959 149.555 92.7959L152.236 86.5468L152.843 87.1515C153.501 87.7059 158.104 87.7059 160.128 89.0162Z" fill="#C2A7EB" stroke="#C2A7EB" stroke-miterlimit="10"/>
<g opacity="0.5">
<path d="M168.525 91.536C168.525 91.536 171.156 100.003 166.603 106.151C162.303 111.997 161.392 112.249 161.24 112.4C161.089 112.551 149.453 106.957 149.402 107.058" fill="#C2A7EB"/>
<path d="M168.525 91.536C168.525 91.536 171.156 100.003 166.603 106.151C162.303 111.997 161.392 112.249 161.24 112.4C161.089 112.551 149.453 106.957 149.402 107.058" stroke="#C2A7EB" stroke-miterlimit="10"/>
</g>
<path d="M166.301 75.8122C166.301 75.8122 165.39 77.5257 165.34 78.0297L171.512 82.4142C171.512 82.4142 172.169 75.7114 168.021 75.1067C163.873 74.4515 166.301 75.8122 166.301 75.8122Z" fill="#162447"/>
<path d="M166.298 75.8124L164.578 77.8282L163.212 76.9715C163.161 76.9211 164.831 75.1572 166.298 75.8124Z" fill="#162447"/>
<path d="M166.551 73.8466L172.571 70.0164C173.178 69.6133 173.937 70.0668 173.836 70.722L172.925 77.5255C172.874 77.5255 170.901 75.9128 166.551 73.8466Z" fill="#ED7321"/>
<path d="M169.236 73.645C169.236 73.8466 169.084 73.9978 168.881 73.9978C168.679 73.9978 168.527 73.8466 168.527 73.645C168.527 73.4434 168.679 73.2922 168.881 73.2922C169.084 73.2922 169.236 73.4434 169.236 73.645Z" fill="#FFC0C0"/>
<path d="M171.361 73.8466C171.361 74.0482 171.209 74.1994 171.006 74.1994C170.804 74.1994 170.652 74.0482 170.652 73.8466C170.652 73.645 170.804 73.4938 171.006 73.4938C171.209 73.4938 171.361 73.645 171.361 73.8466Z" fill="#FFC0C0"/>
<path d="M172.006 75.9633C172.202 75.9633 172.361 75.8054 172.361 75.6106C172.361 75.4158 172.202 75.2578 172.006 75.2578C171.811 75.2578 171.652 75.4158 171.652 75.6106C171.652 75.8054 171.811 75.9633 172.006 75.9633Z" fill="#FFC0C0"/>
<path d="M173.134 73.343C173.134 73.5446 172.982 73.6958 172.78 73.6958C172.578 73.6958 172.426 73.5446 172.426 73.343C172.426 73.1414 172.578 72.9902 172.78 72.9902C172.932 72.9902 173.134 73.1414 173.134 73.343Z" fill="#FFC0C0"/>
<path d="M170.592 72.4354C170.788 72.4354 170.946 72.2774 170.946 72.0826C170.946 71.8878 170.788 71.7298 170.592 71.7298C170.397 71.7298 170.238 71.8878 170.238 72.0826C170.238 72.2774 170.397 72.4354 170.592 72.4354Z" fill="#FFC0C0"/>
<path d="M172.37 71.8306C172.565 71.8306 172.724 71.6727 172.724 71.4779C172.724 71.283 172.565 71.1251 172.37 71.1251C172.174 71.1251 172.016 71.283 172.016 71.4779C172.016 71.6727 172.174 71.8306 172.37 71.8306Z" fill="#FFC0C0"/>
<path opacity="0.5" d="M170.8 76.1143C170.8 76.1143 170.901 76.0135 166.551 73.8464L170.75 71.1754" fill="#CE6721"/>
<path d="M232.477 174.891C232.477 175.193 230.454 175.445 227.924 175.445C225.395 175.445 223.371 175.193 223.371 174.891C223.371 174.589 225.395 174.337 227.924 174.337C230.454 174.337 232.477 174.589 232.477 174.891Z" fill="#FAD034" stroke="#FAD034" stroke-width="0.2193" stroke-miterlimit="10"/>
<path d="M217.355 152.868L228.485 173.883C228.94 174.69 229.8 175.244 230.711 175.244H243.864C243.864 174.488 243.409 173.833 242.701 173.581L235.719 171.061L226.209 147.173L217.355 152.868Z" fill="#FFB991" stroke="#FFB991" stroke-width="0.8367" stroke-miterlimit="10"/>
<path d="M226.257 147.173L220.288 158.764L216.797 151.961L226.257 147.173Z" fill="#D46A4C"/>
<path d="M187.201 139.059L184.571 158.31C197.724 166.273 207.993 167.785 207.993 167.785L213.356 152.364C213.761 151.255 215.177 151.003 215.936 151.91L216.847 153.271L227.066 146.77L223.878 139.21C222.361 135.481 218.364 132.508 214.368 131.852L208.196 130.794L197.521 128.879L188.871 129.685C180.726 130.441 174.706 137.497 175.161 145.611L175.515 151.356" fill="#FAD034"/>
<path d="M187.201 139.059L184.571 158.31C197.724 166.273 207.993 167.785 207.993 167.785L213.356 152.364C213.761 151.255 215.177 151.003 215.936 151.91L216.847 153.271L227.066 146.77L223.878 139.21C222.361 135.481 218.364 132.508 214.368 131.852L208.196 130.794L197.521 128.879L188.871 129.685C180.726 130.441 174.706 137.497 175.161 145.611L175.515 151.356" stroke="#FAD034" stroke-width="0.2193" stroke-miterlimit="10"/>
<path d="M198.335 126.561C198.335 126.561 200.511 130.744 202.129 131.802L199.904 135.481C199.802 135.683 199.499 135.683 199.398 135.481C198.538 134.171 195.806 129.887 196.109 128.678L198.335 126.561Z" fill="#FFC0C0"/>
<path d="M207.588 127.619C207.588 127.619 203.946 131.298 202.023 131.802L203.136 135.985C203.187 136.187 203.44 136.287 203.642 136.136C204.907 135.078 208.853 131.449 209.308 130.542L207.588 127.619Z" fill="#FFC0C0"/>
<path d="M202.027 131.954L203.14 136.036L199.852 135.481L202.027 131.954Z" fill="#FAD034"/>
<path d="M147.841 165.165L145.615 174.942H130.59V173.783L139.139 168.844L139.797 165.366L147.841 165.165Z" fill="#FFB991"/>
<path d="M138.937 168.844L141.466 171.565C142.124 172.271 143.186 172.321 143.894 171.615L146.778 168.743L145.412 174.942H130.438V173.782L138.937 168.844Z" fill="#C2A7EB" stroke="#C2A7EB" stroke-width="1.2806" stroke-miterlimit="10"/>
<path d="M140.305 169.801L136.612 172.12C135.854 172.573 134.842 172.372 134.336 171.616" stroke="#FFFCF2" stroke-width="0.4035" stroke-miterlimit="10" stroke-linecap="square" stroke-linejoin="round"/>
<path d="M201.656 112.5L206.058 105.546C206.513 104.84 207.525 104.891 207.778 105.646L210.155 113.256C210.155 113.256 207.221 110.233 201.656 112.5Z" fill="#C2A7EB"/>
<path d="M203.625 106.201C204.08 106.201 204.08 107.008 204.586 107.008C205.042 107.008 205.042 106.201 205.547 106.201C206.003 106.201 206.003 107.008 206.509 107.008C206.964 107.008 206.964 106.201 207.47 106.201C207.925 106.201 207.925 107.008 208.431 107.008C208.886 107.008 208.886 106.201 209.392 106.201" stroke="#FFC0C0" stroke-width="0.8241" stroke-miterlimit="10"/>
<path d="M203.309 107.864C203.865 107.864 203.865 108.822 204.422 108.822C204.978 108.822 204.978 107.864 205.535 107.864C206.091 107.864 206.091 108.822 206.647 108.822C207.204 108.822 207.204 107.864 207.76 107.864C208.317 107.864 208.317 108.822 208.873 108.822C209.43 108.822 209.43 107.864 209.986 107.864" stroke="#FFC0C0" stroke-width="0.9373" stroke-miterlimit="10"/>
<path d="M203.07 109.779C203.627 109.779 203.627 110.737 204.183 110.737C204.74 110.737 204.74 109.779 205.296 109.779C205.853 109.779 205.853 110.737 206.409 110.737C206.966 110.737 206.966 109.779 207.522 109.779C208.079 109.779 208.079 110.737 208.635 110.737C209.192 110.737 209.192 109.779 209.748 109.779" stroke="#FFC0C0" stroke-width="0.9373" stroke-miterlimit="10"/>
<path d="M184.569 154.279L167.975 139.614C163.675 135.784 156.997 136.338 153.406 140.823L132.613 167.483L147.638 167.584L153.456 161.788C157.351 157.908 163.625 157.857 167.621 161.637C173.692 167.433 181.989 174.841 185.125 175.547H197.469C202.427 175.547 206.777 172.271 208.143 167.584L210.521 159.47L184.569 154.279Z" fill="#72DEE8" stroke="#72DEE8" stroke-width="0.954" stroke-miterlimit="10"/>
<path d="M187.7 155.539L178.543 171.414L182.691 174.992L187.7 155.539Z" fill="#72DEE8"/>
<path d="M207.271 122.933L206.462 130.593C206.462 130.593 201.858 134.373 198.367 128.88L201.251 121.723L207.271 122.933Z" fill="#FFB991" stroke="#FFB991" stroke-width="0.8367" stroke-miterlimit="10"/>
<path d="M199.176 126.41L198.215 128.829C199.429 130.744 200.795 131.55 202.11 131.752L199.176 126.41Z" fill="#D46A4C"/>
<path d="M208.331 116.23L207.37 123.386C207.37 123.386 202.868 128.325 200.945 122.025L204.234 115.02L208.331 116.23Z" fill="#D46A4C"/>
<path d="M209.952 119.455L208.688 119.304L208.94 117.792L210.205 117.943C210.61 117.994 210.863 118.346 210.762 118.749C210.711 119.203 210.357 119.505 209.952 119.455Z" fill="#FFB991" stroke="#FFB991" stroke-width="0.8367" stroke-miterlimit="10"/>
<path d="M200.294 117.54L201.609 117.489L201.559 119.001L200.243 119.052C199.839 119.052 199.535 118.749 199.535 118.346C199.535 117.893 199.889 117.54 200.294 117.54Z" fill="#FFB991" stroke="#FFB991" stroke-width="0.8367" stroke-miterlimit="10"/>
<path d="M200.296 117.893H200.852L200.801 118.498H200.245C200.093 118.498 199.941 118.346 199.941 118.195C199.992 118.044 200.144 117.893 200.296 117.893Z" fill="#D46A4C" stroke="#D46A4C" stroke-width="0.8532" stroke-miterlimit="10"/>
<path d="M210.154 118.448L209.648 118.397L209.547 119.002L210.053 119.052C210.205 119.052 210.356 118.952 210.407 118.8C210.407 118.649 210.306 118.448 210.154 118.448Z" fill="#D46A4C" stroke="#D46A4C" stroke-width="0.8532" stroke-miterlimit="10"/>
<path d="M203.942 123.789C200.957 123.185 200.198 120.967 200.755 118.447L200.805 118.246C201.362 115.776 203.689 112.148 206.016 112.501C208.343 112.904 209.861 117.137 209.304 119.657L209.254 119.858C208.697 122.328 207.23 124.394 203.942 123.789Z" fill="#FFB991" stroke="#FFB991" stroke-width="0.8367" stroke-miterlimit="10"/>
<path d="M204.542 122.227C203.48 122.076 202.822 121.219 203.025 120.363L203.075 120.262L206.819 120.816L206.768 120.917C206.566 121.774 205.554 122.379 204.542 122.227Z" fill="#FFC0C0"/>
<path d="M204.288 118.448C204.237 118.548 204.085 118.599 203.934 118.548C203.832 118.498 203.782 118.347 203.832 118.196C203.883 118.095 204.035 118.044 204.186 118.095C204.288 118.145 204.338 118.296 204.288 118.448Z" fill="#162447"/>
<path d="M206.518 118.7C206.468 118.8 206.316 118.851 206.164 118.8C206.063 118.75 206.012 118.599 206.063 118.448C206.113 118.347 206.265 118.296 206.417 118.347C206.518 118.448 206.569 118.599 206.518 118.7Z" fill="#162447"/>
<path d="M205.45 119.707L204.59 119.556C204.489 119.556 204.438 119.405 204.489 119.304L205.045 118.498C205.096 118.397 205.247 118.397 205.298 118.548L205.602 119.506C205.652 119.607 205.551 119.707 205.45 119.707Z" fill="#E88A6F"/>
<path d="M203.181 117.036C202.878 117.187 203.434 116.432 203.788 116.381C204.142 116.331 204.496 116.532 204.547 116.885C204.547 116.835 203.889 116.683 203.181 117.036Z" fill="#162447"/>
<path d="M207.269 117.339C207.522 117.54 207.218 116.683 206.864 116.532C206.51 116.381 206.156 116.532 206.004 116.835C206.054 116.835 206.712 116.835 207.269 117.339Z" fill="#162447"/>
<path d="M209.148 173.228C212.74 177.512 217.799 175.546 225.843 169.146C230.295 165.618 232.571 160.982 228.979 156.698L209.148 173.228Z" fill="#FFC0C0"/>
<path d="M222.757 171.615C216.889 175.647 212.032 176.655 209.148 173.228L218.255 165.467C219.469 164.408 221.189 164.257 222.605 165.114C224.932 166.475 224.983 170.103 222.757 171.615Z" fill="#162447"/>
<path d="M185.121 131.248L190.737 140.773C191.091 141.378 191.9 141.378 192.254 140.773L195.947 134.524C196.251 134.02 196.2 133.365 195.846 132.962L194.885 131.802C194.632 131.5 194.278 131.349 193.873 131.349L185.121 131.248Z" fill="#162447"/>
<path d="M188.863 139.311C188.863 139.311 204.445 160.477 204.647 175.395L182.641 175.848V175.495C182.641 173.832 183.956 172.472 185.524 172.472H186.688L188.711 162.543" fill="#72DEE8"/>
<path d="M188.863 139.261C188.863 139.261 204.445 160.478 204.647 175.445L182.641 175.899V175.546C182.641 173.883 183.956 172.523 185.524 172.523H186.688L188.711 162.594" fill="#72DEE8"/>
<path d="M187.641 131.853L190.878 125.503C191.232 124.848 192.092 124.848 192.345 125.452L194.976 131.802C194.976 131.802 192.345 131.853 187.641 131.853Z" fill="#FF859D"/>
<path d="M189.864 130.291C189.966 130.442 189.915 130.694 189.713 130.795C189.561 130.896 189.308 130.845 189.207 130.644C189.106 130.493 189.156 130.241 189.359 130.14C189.51 130.089 189.763 130.14 189.864 130.291Z" fill="#FFC0C0"/>
<path d="M191.786 129.434C191.888 129.585 191.837 129.837 191.635 129.938C191.483 130.038 191.23 129.988 191.129 129.786C191.028 129.635 191.078 129.383 191.28 129.282C191.483 129.182 191.685 129.232 191.786 129.434Z" fill="#FFC0C0"/>
<path d="M193.614 130.442C193.716 130.593 193.665 130.845 193.463 130.945C193.311 131.046 193.058 130.996 192.957 130.794C192.856 130.643 192.906 130.391 193.109 130.29C193.26 130.19 193.513 130.24 193.614 130.442Z" fill="#FFC0C0"/>
<path d="M193.048 128.124C193.149 128.275 193.099 128.527 192.896 128.628C192.745 128.728 192.492 128.678 192.39 128.476C192.289 128.325 192.34 128.073 192.542 127.972C192.745 127.872 192.947 127.922 193.048 128.124Z" fill="#FFC0C0"/>
<path d="M190.575 128.124C190.677 128.275 190.626 128.527 190.424 128.628C190.272 128.728 190.019 128.678 189.918 128.476C189.817 128.325 189.867 128.073 190.07 127.972C190.221 127.872 190.474 127.922 190.575 128.124Z" fill="#FFC0C0"/>
<path d="M191.786 126.662C191.888 126.813 191.837 127.065 191.635 127.166C191.483 127.267 191.23 127.216 191.129 127.015C191.028 126.864 191.078 126.612 191.28 126.511C191.432 126.46 191.685 126.511 191.786 126.662Z" fill="#FFC0C0"/>
<path opacity="0.5" d="M192.447 131.853C192.447 131.853 191.536 131.903 187.641 131.853L189.917 127.418" fill="#FF859D"/>
<path d="M198.064 131.853L178.739 131.953C177.93 131.953 177.525 132.961 178.132 133.516L180.965 136.287L186.277 136.539C187.086 136.59 187.441 137.497 186.884 138.051L185.164 139.714C185.012 139.866 185.012 140.168 185.164 140.319L187.744 142.839C190.021 144.956 191.791 145.359 195.231 142.033C196.243 141.075 197.407 138.858 198.773 136.993C200.037 135.28 199.936 132.911 198.064 131.853Z" fill="#FFC0C0"/>
<path d="M178.587 133.919L178.081 133.465C177.474 132.911 177.879 131.903 178.688 131.903L179.295 131.853L178.587 133.919Z" fill="#162447" stroke="#162447" stroke-width="0.5709" stroke-miterlimit="10"/>
<path d="M185.566 134.574C185.566 134.372 185.718 134.221 185.971 134.221C186.174 134.221 186.376 134.372 186.376 134.574" stroke="#162447" stroke-width="0.8964" stroke-miterlimit="10" stroke-linecap="round" stroke-linejoin="round"/>
<path d="M189.512 131.097L195.127 140.622C195.481 141.226 196.291 141.226 196.645 140.622L200.338 134.373C200.641 133.869 200.591 133.213 200.237 132.81L199.275 131.651C199.023 131.349 198.668 131.198 198.264 131.198L189.512 131.097Z" fill="#162447"/>
<path d="M189.514 131.097L189.059 131.853L190.02 131.903L189.514 131.097Z" fill="#162447"/>
<path d="M186.829 138.001L184.553 137.598C183.035 137.296 181.517 138.304 181.265 139.866L181.012 141.227C180.91 141.831 181.315 142.436 181.922 142.537C182.327 142.587 182.732 142.487 182.985 142.134L186.829 138.001Z" fill="#FF859D"/>
<path d="M199.581 139.211C199.581 139.211 214.251 157.454 216.629 172.069C216.933 173.884 215.567 175.547 213.695 175.597L193.965 176V175.647C193.965 173.984 195.331 172.624 197 172.624H198.215L199.024 168.542L189.918 161.99L193.864 154.985" fill="#FFC0C0"/>
<path d="M187.085 142.588C187.085 142.588 185.82 148.635 187.844 153.473C185.719 160.075 183.24 168.34 182.785 172.624H180.812C178.991 172.624 177.574 174.085 177.574 175.849H185.77L199.682 155.136C199.682 155.136 205.449 150.349 198.619 137.397L187.085 142.588Z" fill="#FFC0C0"/>
<path d="M199.574 139.211C199.574 139.211 208.883 150.802 213.891 162.898H213.284C205.746 162.898 199.625 156.8 199.625 149.291V139.11" fill="#162447"/>
<path d="M199.027 168.542C199.432 165.619 200.798 165.165 203.328 165.014L193.918 164.913L199.027 168.542Z" fill="#162447"/>
<path d="M197.705 175.799H197.047V174.589C197.047 174.388 197.199 174.236 197.401 174.236C197.603 174.236 197.755 174.388 197.755 174.589V175.799H197.705Z" fill="#162447"/>
<path d="M196.236 175.799H195.578V174.589C195.578 174.388 195.73 174.236 195.932 174.236C196.135 174.236 196.286 174.388 196.286 174.589V175.799H196.236Z" fill="#162447"/>
<path d="M181.376 175.496H180.719V174.287C180.719 174.085 180.871 173.934 181.073 173.934C181.275 173.934 181.427 174.085 181.427 174.287V175.496H181.376Z" fill="#162447"/>
<path d="M179.9 175.496H179.242V174.287C179.242 174.085 179.394 173.934 179.596 173.934C179.799 173.934 179.95 174.085 179.95 174.287V175.496H179.9Z" fill="#162447"/>
<path d="M187.235 142.386C187.235 142.386 189.107 144.653 191.434 144.351C194.773 143.847 198.517 137.296 198.517 137.296L199.63 139.211C199.63 139.211 195.785 145.46 191.333 145.913C187.589 146.266 186.426 143.746 186.426 143.746L187.235 142.386Z" fill="#72DEE8"/>
<path d="M185.577 144.553C186.134 144.704 203.739 146.72 203.739 146.72C203.739 146.72 206.218 142.234 207.128 142.486C208.039 142.688 206.218 145.611 206.218 145.611C206.218 145.611 213.3 143.797 214.312 144.15C215.324 144.502 210.72 146.518 210.72 146.518L215.071 146.669C215.273 146.72 215.678 147.173 215.172 147.425L211.479 148.484L215.121 149.34C215.324 149.391 215.324 149.693 215.121 149.744L211.884 150.399C211.782 150.399 211.782 150.55 211.884 150.6L214.97 151.356C215.172 151.407 215.223 151.659 215.02 151.759C211.833 153.271 197.061 162.544 182.238 154.582L185.577 144.553Z" fill="#EAE6DA"/>
<path d="M186.084 143.948C186.641 144.099 204.246 146.115 204.246 146.115C204.246 146.115 206.725 141.629 207.635 141.881C208.546 142.083 206.725 145.006 206.725 145.006C206.725 145.006 213.807 143.192 214.819 143.544C215.831 143.897 211.227 145.913 211.227 145.913L215.578 146.064C215.78 146.115 216.185 146.568 215.679 146.82L211.986 147.879L215.628 148.735C215.831 148.786 215.831 149.088 215.628 149.138L212.391 149.794C212.289 149.794 212.289 149.945 212.391 149.995L215.477 150.751C215.679 150.802 215.729 151.054 215.527 151.154C212.34 152.666 196.758 159.369 182.492 154.279L186.084 143.948Z" fill="#FFB991" stroke="#FFB991" stroke-width="0.8367" stroke-miterlimit="10"/>
<path d="M186.586 143.746L184.411 155.085C184.411 155.085 182.134 154.733 181.477 153.876L186.586 143.746Z" fill="#D46A4C"/>
<path d="M187.194 142.436L181.477 155.74C181.477 155.74 175.052 154.884 175.255 145.863L182.793 142.436L184.968 140.067L187.194 142.436Z" fill="#FAD034" stroke="#FAD034" stroke-width="0.2193" stroke-miterlimit="10"/>
<path d="M193.726 119.858C193.726 120.513 193.22 121.017 192.562 121.017C191.904 121.017 191.398 120.513 191.398 119.858C191.398 119.203 191.904 118.699 192.562 118.699C193.22 118.699 193.726 119.254 193.726 119.858Z" fill="#ED7321"/>
<path d="M208.14 113.458C208.494 113.458 209.354 113.76 209.557 114.063C209.607 114.163 209.708 114.516 209.759 114.869C209.86 115.323 209.809 117.792 209.607 117.742C209.354 117.691 208.089 114.768 207.988 114.415" fill="#162447"/>
<path d="M204.04 112.752C203.888 112.299 203.281 112.097 202.825 112.198C202.218 112.349 201.611 112.752 201.257 113.307C200.903 113.861 200.701 114.516 200.6 115.222C200.549 115.524 200.701 117.389 200.954 117.49C201.105 117.54 202.927 114.466 203.433 113.76" fill="#162447"/>
<path d="M202.468 112.148C202.266 111.946 202.064 111.694 202.013 111.392C201.963 111.089 202.013 110.736 202.317 110.636C202.57 110.535 202.873 110.636 203.126 110.837C203.329 111.039 203.48 111.291 203.733 111.442C203.784 111.24 203.733 110.988 203.834 110.736C203.885 110.535 204.138 110.283 204.34 110.384C204.441 110.434 204.492 110.484 204.543 110.585C204.745 110.837 204.947 111.089 205.15 111.341C205.554 110.434 206.667 109.88 207.629 110.132C208.64 110.384 209.349 111.392 209.247 112.349C209.5 112.248 209.804 112.5 209.855 112.803C209.855 113.105 209.703 113.357 209.5 113.559C209.298 113.76 209.045 113.911 208.742 113.962C208.438 114.012 208.134 113.911 207.983 113.659C208.185 113.811 208.084 114.214 207.882 114.315C207.629 114.415 207.325 114.315 207.123 114.214C206.769 114.012 206.414 113.659 206.263 113.256C206.111 113.508 206.01 113.76 205.757 113.962C205.554 114.163 205.2 114.264 204.947 114.113C204.644 113.962 204.543 113.559 204.492 113.206C204.391 113.609 203.329 113.962 202.924 113.811C202.519 113.659 202.62 113.357 202.418 113.004C202.266 112.752 202.367 112.198 202.468 111.896" fill="#162447"/>
<path d="M202.666 111.896C202.514 111.744 201.907 110.888 202.514 110.938C202.868 110.938 203.172 111.492 203.425 111.694C203.576 111.845 203.931 111.795 203.981 111.543C204.032 111.392 204.032 111.19 204.032 111.039C204.032 110.938 204.082 110.787 204.183 110.736C204.234 110.736 204.234 110.787 204.234 110.787C204.335 110.837 204.436 111.039 204.538 111.14C204.639 111.291 204.791 111.442 204.892 111.543C204.993 111.694 205.296 111.644 205.398 111.492C205.752 110.736 206.612 110.233 207.472 110.384C208.382 110.585 208.989 111.442 208.888 112.299C208.888 112.5 209.091 112.652 209.293 112.601C209.647 112.551 209.394 113.055 209.293 113.156C209.192 113.256 209.091 113.357 208.989 113.408C208.737 113.559 208.382 113.609 208.18 113.357C208.028 113.508 207.876 113.659 207.725 113.811C207.876 113.962 207.421 113.911 207.371 113.911C207.219 113.861 207.118 113.76 207.016 113.71C206.764 113.508 206.612 113.307 206.511 113.055C206.409 112.853 206.055 112.853 205.954 113.055C205.802 113.307 205.6 113.76 205.246 113.811C204.841 113.861 204.791 113.357 204.74 113.055C204.689 112.702 204.183 112.803 204.133 113.055C204.032 113.307 203.273 113.508 203.02 113.458C202.818 113.408 202.767 113.055 202.716 112.853C202.615 112.551 202.615 112.299 202.716 111.996C202.919 111.644 202.312 111.291 202.16 111.694C201.958 112.097 201.907 112.601 202.059 113.004C202.21 113.408 202.312 113.911 202.818 114.063C203.425 114.264 204.538 113.861 204.74 113.256C204.538 113.256 204.335 113.256 204.133 113.256C204.234 113.811 204.487 114.415 205.094 114.466C205.802 114.516 206.207 113.911 206.511 113.408C206.308 113.408 206.156 113.408 205.954 113.408C206.258 114.012 206.915 114.667 207.674 114.667C208.281 114.667 208.737 113.911 208.231 113.408C207.927 113.105 207.522 113.559 207.775 113.861C208.382 114.567 209.394 114.214 209.9 113.559C210.153 113.256 210.254 112.853 210.102 112.5C209.951 112.097 209.546 111.946 209.141 111.996C209.293 112.097 209.394 112.198 209.546 112.299C209.597 111.14 208.787 109.981 207.624 109.729C206.511 109.477 205.296 110.081 204.791 111.14C204.942 111.14 205.145 111.089 205.296 111.089C204.993 110.737 204.639 109.981 204.082 110.031C203.425 110.132 203.425 110.787 203.323 111.291C203.526 111.24 203.678 111.19 203.88 111.14C203.374 110.686 202.767 109.779 202.008 110.333C201.3 110.888 201.806 111.744 202.261 112.248C202.514 112.652 202.969 112.198 202.666 111.896Z" fill="#162447"/>
<path d="M202.58 112.5C202.58 112.904 202.226 113.256 201.821 113.256C201.417 113.256 201.062 112.904 201.062 112.5C201.062 112.097 201.417 111.744 201.821 111.744C202.277 111.744 202.58 112.097 202.58 112.5Z" fill="#162447"/>
<path d="M210.369 113.912C210.369 114.315 210.015 114.667 209.61 114.667C209.206 114.667 208.852 114.315 208.852 113.912C208.852 113.508 209.206 113.156 209.61 113.156C210.015 113.156 210.369 113.508 210.369 113.912Z" fill="#162447"/>
<path d="M34.0598 88.9656C34.0598 88.9656 39.1187 84.9843 44.7847 87.0505C50.4507 89.1168 56.0662 90.3263 58.798 87.1009C61.5298 83.8756 66.5888 82.0109 67.4994 82.3637C68.41 82.7164 76.4031 105.647 65.577 112.148L56.1674 107.159L63.7558 114.315C63.7558 114.315 63.4522 116.986 58.8992 118.75C54.245 120.463 25.2572 94.106 34.0598 88.9656Z" fill="#162447"/>
<path d="M33.1 90.6791C34.0612 88.3105 36.1859 86.5466 38.6648 85.9418C41.2955 85.2867 43.8249 86.2442 46.152 87.3529C48.4286 88.4616 50.7051 89.8223 53.2852 90.1751C54.5499 90.3767 55.8146 90.2255 56.9782 89.5704C58.0406 88.9656 58.85 88.0585 59.5582 87.1513C60.5194 85.8914 61.2783 84.5307 62.4418 83.422C63.6054 82.2629 65.1737 81.6078 66.8431 81.507C67.2478 81.507 67.2478 80.8518 66.8431 80.8518C65.4772 80.9022 64.1619 81.3054 63.0489 82.1117C61.9359 82.8677 61.1265 83.8756 60.3677 84.9843C59.5077 86.1938 58.7488 87.4033 57.6358 88.3608C56.3711 89.4696 54.904 89.8223 53.2346 89.52C48.125 88.6128 43.8249 83.8252 38.3107 85.3371C35.68 86.0426 33.5047 87.9577 32.4929 90.4775C32.3411 90.8806 32.9482 91.0318 33.1 90.6791Z" fill="#162447"/>
<path d="M64.3639 174.942C64.3639 175.244 62.3403 175.496 59.8109 175.496C57.2814 175.496 55.2578 175.244 55.2578 174.942C55.2578 174.639 57.2814 174.387 59.8109 174.387C62.3403 174.387 64.3639 174.639 64.3639 174.942Z" fill="#FAD034" stroke="#FAD034" stroke-width="0.2193" stroke-miterlimit="10"/>
<path d="M37.8555 95.8197C37.8555 95.8197 40.992 103.228 41.1438 103.833C41.1438 103.833 44.5839 105.042 46.7086 101.565C46.7086 101.565 45.3933 100.103 42.4591 96.1221L37.8555 95.8197Z" fill="#FFB991" stroke="#FFB991" stroke-width="0.8863" stroke-miterlimit="10" stroke-linecap="round" stroke-linejoin="round"/>
<path d="M35.325 90.5784C36.5898 89.5201 38.8663 90.4273 40.5358 92.4431L40.6875 92.5943C42.4076 94.5598 43.0652 97.7851 41.9523 98.6923L41.9017 98.7427C40.9911 99.3978 38.3098 98.2891 36.5898 96.2732L36.1851 96.122C34.465 94.1062 34.0603 91.6872 35.325 90.5784Z" fill="#D46A4C" stroke="#D46A4C" stroke-width="0.8251" stroke-miterlimit="10"/>
<path d="M41.9535 91.0817L40.8405 91.8881L39.9805 90.6281L41.0934 89.8218C41.4476 89.5698 41.9029 89.6706 42.1558 90.0234C42.4088 90.3762 42.3076 90.8297 41.9535 91.0817Z" fill="#FFB991" stroke="#FFB991" stroke-width="0.8622" stroke-miterlimit="10"/>
<path d="M34.7224 96.6253L35.7847 95.7686L36.7459 96.9781L35.6836 97.8348C35.3294 98.0868 34.8741 98.0364 34.6212 97.6837C34.3176 97.3813 34.3682 96.8773 34.7224 96.6253Z" fill="#FFB991" stroke="#FFB991" stroke-width="0.8622" stroke-miterlimit="10"/>
<path d="M34.9258 96.9783L35.3811 96.6255L35.7858 97.1295L35.3305 97.4823C35.1787 97.5831 34.9764 97.5831 34.8752 97.4319C34.774 97.2807 34.774 97.0791 34.9258 96.9783Z" fill="#D46A4C" stroke="#D46A4C" stroke-width="0.8532" stroke-miterlimit="10"/>
<path d="M41.3498 90.1748L40.8945 90.4772L41.2487 90.9811L41.704 90.6788C41.8557 90.578 41.9063 90.3764 41.8051 90.2252C41.704 90.1244 41.5016 90.074 41.3498 90.1748Z" fill="#D46A4C" stroke="#D46A4C" stroke-width="0.8532" stroke-miterlimit="10"/>
<path d="M35.227 90.074C37.1494 88.4109 39.7295 88.9148 41.3483 90.7291L41.4495 90.8803C43.0684 92.745 42.9672 95.7184 41.3483 97.0791C39.9824 98.087 36.4411 98.3894 34.8223 96.5247L34.7211 96.3735C33.1022 94.5593 33.3046 91.7371 35.227 90.074Z" fill="#FFB991" stroke="#FFB991" stroke-width="0.8501" stroke-miterlimit="10"/>
<path d="M40.1337 95.567L39.9819 95.6678C39.4255 96.071 38.7172 95.9702 38.3125 95.4158L40.3867 93.9039C40.7914 94.4583 40.6902 95.2142 40.1337 95.567Z" fill="#FFC0C0"/>
<path d="M39.3731 92.594C39.5249 92.6444 39.5755 92.7956 39.5249 92.9467C39.4743 93.0979 39.3225 93.1483 39.1707 93.0979C39.019 93.0475 38.9684 92.8963 39.019 92.7452C39.0696 92.594 39.2213 92.5436 39.3731 92.594Z" fill="#162447"/>
<path d="M37.7598 93.8536C37.9116 93.904 37.9622 94.0552 37.9116 94.2063C37.861 94.3575 37.7092 94.4079 37.5575 94.3575C37.4057 94.3071 37.3551 94.1559 37.4057 94.0048C37.4563 93.8536 37.608 93.8032 37.7598 93.8536Z" fill="#162447"/>
<path d="M39.3247 94.1056L38.7682 94.5088C38.7176 94.5592 38.6164 94.5088 38.5658 94.4584L38.4141 93.7529C38.4141 93.6521 38.4646 93.6017 38.5658 93.6017L39.2741 93.9041C39.3753 93.9041 39.4258 94.0048 39.3247 94.1056Z" fill="#E88A6F"/>
<path d="M39.4261 91.6861C39.6285 91.6861 39.072 91.4341 38.8191 91.5349C38.5661 91.6357 38.4649 91.8877 38.5661 92.0892C38.6167 92.0892 38.9202 91.7365 39.4261 91.6861Z" fill="#162447"/>
<path d="M36.4395 93.9039C36.3384 94.1055 36.2878 93.5008 36.4395 93.2992C36.5913 93.0976 36.8948 93.0976 37.0466 93.2488C37.0466 93.1984 36.6419 93.4 36.4395 93.9039Z" fill="#162447"/>
<path d="M34.4656 96.5248C34.5162 96.5752 34.3644 92.1907 33.9091 91.2836C33.4538 90.3765 31.9867 93.6018 34.4656 96.5248Z" fill="#162447"/>
<path d="M33.9062 91.2839C33.9062 91.2839 37.4981 92.0399 40.6852 89.8224C40.7358 89.8224 36.031 85.4883 33.9062 91.2839Z" fill="#162447"/>
<path d="M49.9401 120.917L40.834 143.897C38.6081 149.491 39.2658 153.624 43.9706 160.327L51.9131 168.793L55.505 168.693L51.2049 158.916C49.6366 155.388 49.7378 151.356 51.4578 147.879L58.085 134.473L90.9682 165.165L95.5212 165.064L68.5065 124.848C68.5065 124.848 66.9888 121.723 63.8016 119.304C60.6145 116.885 57.3768 115.776 57.3768 115.776L56.0109 116.683L49.9401 120.917Z" fill="#ED7321" stroke="#ED7321" stroke-width="0.954" stroke-miterlimit="10"/>
<path d="M52.5692 128.627L58.134 134.977L52.2656 146.518L52.5692 128.627Z" fill="#CE6721"/>
<path opacity="0.53" d="M54.5968 131.197L46.806 146.266C45.693 148.383 45.693 150.902 46.7554 153.069L54.3438 168.491" stroke="#FFC0C0" stroke-width="0.25" stroke-miterlimit="10" stroke-linecap="round" stroke-linejoin="round"/>
<path d="M55.2495 168.087L58.8414 175.143C58.8414 175.143 47.9141 175.344 47.9141 175.244C47.9141 175.143 53.6307 170.758 53.6307 170.758L51.253 168.188L55.2495 168.087Z" fill="#FFB991" stroke="#FFB991" stroke-width="0.8501" stroke-miterlimit="10"/>
<path d="M53.3271 171.061C53.3271 171.061 47.9141 175.143 47.9141 175.294C47.9141 175.395 58.8414 175.193 58.8414 175.193L56.919 171.464C56.919 171.464 56.1601 172.321 55.806 172.371C55.0472 172.422 53.3271 171.061 53.3271 171.061Z" fill="#00263B" stroke="#00263B" stroke-width="0.954" stroke-miterlimit="10"/>
<path d="M91.1719 165.568L98.5579 174.589L101.897 174.891L102.706 171.162L95.5226 165.114L91.1719 165.568Z" fill="#FFB991" stroke="#FFB991" stroke-width="0.8501" stroke-miterlimit="10"/>
<path d="M95.8281 171.313L98.6611 174.689L101.949 174.992L102.809 171.212L99.6223 168.592L95.8281 171.313Z" fill="#00263B" stroke="#00263B" stroke-width="0.954" stroke-miterlimit="10"/>
<path d="M53.8895 171.212L51.9165 173.026C51.5118 173.379 50.8541 173.379 50.5 172.976" stroke="#FFFCF2" stroke-width="0.25" stroke-miterlimit="10" stroke-linecap="square" stroke-linejoin="round"/>
<path d="M57.3788 115.776L48.0703 125.251L49.588 121.169L57.3788 115.776Z" fill="#CE6721"/>
<path opacity="0.53" d="M56.6172 116.129C56.6172 116.129 61.6761 118.145 65.4703 122.277C69.2645 126.359 95.2675 164.61 95.2675 164.61" stroke="#FFC0C0" stroke-width="0.25" stroke-miterlimit="10" stroke-linecap="round" stroke-linejoin="round"/>
<path opacity="0.53" d="M55.0508 117.187L60.0085 117.893" stroke="#FFC0C0" stroke-width="0.25" stroke-miterlimit="10" stroke-linecap="round" stroke-linejoin="round"/>
<path d="M32.4926 90.9311L31.8856 84.5307C31.835 83.8756 32.4926 83.5228 32.9479 83.8756L37.7539 87.101C37.8045 87.0506 35.0727 87.6049 32.4926 90.9311Z" fill="#72DEE8"/>
<path d="M34.6693 83.2203C34.6693 83.2203 32.6458 84.2786 31.9375 87.5544" stroke="#FFC0C0" stroke-width="0.9802" stroke-miterlimit="10"/>
<path d="M35.0746 84.8834C35.0746 84.8834 32.2922 86.1433 32.0898 89.8222" stroke="#FFC0C0" stroke-width="0.9802" stroke-miterlimit="10"/>
<path d="M36.7874 86.1936C36.7874 86.1936 32.5885 86.5968 32.2344 91.1829" stroke="#FFC0C0" stroke-width="0.9802" stroke-miterlimit="10"/>
<path opacity="0.56" d="M34.9244 85.1353L37.8586 87.1008C37.8586 87.1008 35.9362 87.1008 32.4961 90.9309" fill="#72DEE8"/>
<path d="M42.3568 90.9814C42.6097 91.1326 43.0145 91.5357 43.4192 92.0397C44.0263 92.7957 44.3804 93.5012 44.178 93.6524C44.0263 93.8036 43.4192 93.2492 42.8121 92.4933C42.205 91.7373 41.8509 91.0318 42.0533 90.8806" stroke="#ED7321" stroke-width="0.5" stroke-miterlimit="10"/>
<path d="M42.153 90.9814C42.1024 91.0318 42.0518 91.0318 42.0012 90.9814C41.9506 90.931 41.9001 90.8303 41.9506 90.7799C42.0012 90.7295 42.0518 90.7295 42.1024 90.7799C42.2036 90.8303 42.2036 90.931 42.153 90.9814Z" fill="#ED7321"/>
<path d="M35.7851 97.9857C35.9875 98.2377 35.9875 98.8425 36.0381 99.4976C36.0887 100.455 35.9369 101.262 35.6839 101.262C35.4816 101.262 35.2792 100.506 35.2792 99.548C35.2286 98.5905 35.3804 97.7841 35.6334 97.7841" stroke="#ED7321" stroke-width="0.5" stroke-miterlimit="10"/>
<path d="M35.6324 97.8857C35.5818 97.8857 35.5312 97.8857 35.5312 97.7849C35.5312 97.7345 35.5313 97.6337 35.6324 97.6337C35.683 97.6337 35.7336 97.6841 35.7336 97.7345C35.7336 97.8353 35.683 97.8857 35.6324 97.8857Z" fill="#ED7321"/>
<path d="M88.9917 96.2728H73.4102V81.8594C73.4102 81.2547 73.916 80.7507 74.5231 80.7507H87.9293C88.5364 80.7507 89.0423 81.2547 89.0423 81.8594V96.2728H88.9917Z" fill="#C2A7EB"/>
<path d="M76.9961 80.8013V96.273" stroke="#FFC0C0" stroke-miterlimit="10"/>
<path d="M76.5 96.273V80.8013" stroke="#896CC1" stroke-miterlimit="10"/>
<path d="M77.0567 80.8016C77.0567 80.8016 72.2001 79.6928 73.3636 77.9289C74.5272 76.1651 77.0567 80.8016 77.0567 80.8016Z" stroke="#FFC0C0" stroke-miterlimit="10" stroke-linecap="round" stroke-linejoin="round"/>
<path d="M76.9531 80.5999C76.9531 80.5999 80.545 79.7936 79.685 78.4833C78.8249 77.2234 76.9531 80.5999 76.9531 80.5999Z" stroke="#FFC0C0" stroke-miterlimit="10" stroke-linecap="round" stroke-linejoin="round"/>
<path d="M76.6522 80.9022C77.4617 81.8597 78.7264 82.3133 79.9911 82.1117C81.4582 81.9101 82.3182 80.751 83.0771 79.5919C83.2794 79.2391 82.7735 78.9368 82.5206 79.2895C81.8629 80.2975 81.1547 81.3054 79.8899 81.507C78.8276 81.6582 77.7652 81.255 77.1075 80.4486C76.8546 80.1463 76.3993 80.5998 76.6522 80.9022Z" fill="#FFC0C0"/>
<path d="M52.9759 105.748L57.9842 109.88C60.4631 112.047 63.4985 112.652 65.9774 110.485L78.1188 99.4986L83.4813 96.8275V96.3236L76.5 96.4244L75.2858 97.6843L64.3079 104.74C63.2455 105.445 61.829 105.395 60.8172 104.589L51.9641 97.8859C50.3452 96.6764 48.1193 96.8276 46.6522 98.2387L41.3909 103.429L40.5815 103.984L36.332 107.159C28.1365 109.931 24.5952 106.252 21.0034 101.666L16.6527 96.2732C16.0456 95.5172 16.2986 95.3661 16.0456 94.4589C15.6409 93.0478 14.9832 91.032 14.7303 90.8304C14.275 90.528 14.9326 93.703 14.9326 93.703C14.9326 93.703 12.0996 89.5705 11.6443 89.3185C11.189 89.0665 13.1114 92.8966 13.1114 92.8966L10.1772 89.4193C10.1267 89.3185 9.97489 89.4193 10.0255 89.5201L12.0996 93.451L9.67135 90.7296C9.57017 90.6288 9.21605 90.4272 9.26664 90.528L11.5432 94.3077L9.26664 92.0399C9.26664 92.0399 10.0761 94.0054 13.6173 97.4323L15.9444 101.716C15.9444 101.716 26.467 121.27 38.6591 113.005C38.6591 113.005 39.9744 112.047 40.1768 111.997C40.8344 111.795 41.9474 115.978 43.4651 116.633C44.9828 117.288 49.8899 120.867 49.8899 120.867L57.3266 115.726L52.9759 105.748Z" fill="#FFB991" stroke="#FFB991" stroke-width="0.8588" stroke-miterlimit="10" stroke-linecap="round" stroke-linejoin="round"/>
<path d="M56.9268 101.363L56.5221 108.922L53.082 106.1L56.9268 101.363Z" fill="#D46A4C"/>
<path d="M34.207 107.713L37.3942 114.063C37.3942 114.063 36.433 114.618 35.0165 115.021L34.207 107.713Z" fill="#D46A4C"/>
<path d="M40.5781 103.026C40.5781 103.026 43.31 102.976 44.0688 102.724C44.0688 102.724 43.1076 104.085 40.6793 103.429L40.5781 103.026Z" fill="#D46A4C"/>
<path d="M83.632 96.2729L75.1836 97.4824L76.3471 96.2729H83.632Z" fill="#D46A4C"/>
<path d="M40.8446 103.479C42.3117 103.933 44.993 103.882 45.3471 99.2961C45.3471 99.2961 47.6236 95.0124 52.632 97.7842C57.1344 100.304 57.2356 100.405 57.2356 100.405L54.7061 107.259L57.7921 115.373L49.3942 121.168C49.3942 121.168 42.5141 116.683 42.2105 116.028C42.0082 115.574 41.5023 114.365 41.1482 113.659C40.9964 113.357 40.5917 113.256 40.3387 113.508C39.4281 114.314 37.5057 115.977 37.2022 116.028C36.7975 116.078 33.8633 106.956 33.8633 106.956C33.8633 106.956 39.0234 102.925 40.8446 103.479Z" fill="#FFC0C0"/>
<path d="M38.0112 108.518C38.2642 108.921 38.163 109.476 37.7583 109.728C37.3536 109.979 36.7971 109.879 36.5442 109.476C36.2912 109.072 36.3924 108.518 36.7971 108.266C37.2018 108.014 37.7583 108.115 38.0112 108.518Z" fill="#162447"/>
<path d="M41.1558 106.503C41.4087 106.906 41.3075 107.46 40.9028 107.712C40.4981 107.964 39.9416 107.863 39.6887 107.46C39.4357 107.057 39.5369 106.503 39.9416 106.251C40.3969 105.948 40.9028 106.099 41.1558 106.503Z" fill="#162447"/>
<path d="M44.3394 104.436C44.5923 104.839 44.4911 105.393 44.0864 105.645C43.6817 105.897 43.1252 105.797 42.8723 105.393C42.6193 104.99 42.7205 104.436 43.1252 104.184C43.5299 103.932 44.0864 104.033 44.3394 104.436Z" fill="#162447"/>
<path d="M47.4722 102.42C47.7251 102.824 47.624 103.378 47.2192 103.63C46.8145 103.882 46.258 103.781 46.0051 103.378C45.7521 102.975 45.8533 102.42 46.258 102.168C46.7133 101.866 47.2192 102.017 47.4722 102.42Z" fill="#162447"/>
<path d="M50.6558 100.354C50.9087 100.757 50.8076 101.312 50.4028 101.563C49.9981 101.815 49.4416 101.715 49.1887 101.312C48.9357 100.908 49.0369 100.354 49.4416 100.102C49.8464 99.85 50.4028 99.9508 50.6558 100.354Z" fill="#162447"/>
<path d="M53.8433 98.3382C54.0962 98.7414 53.995 99.2958 53.5903 99.5477C53.1856 99.7997 52.6291 99.6989 52.3762 99.2958C52.1232 98.8926 52.2244 98.3382 52.6291 98.0862C53.0338 97.7838 53.5397 97.935 53.8433 98.3382Z" fill="#162447"/>
<path d="M38.1089 113.106C38.3618 113.509 38.2607 114.063 37.856 114.315C37.4512 114.567 36.8948 114.467 36.6418 114.063C36.3889 113.66 36.49 113.106 36.8948 112.854C37.3501 112.602 37.856 112.703 38.1089 113.106Z" fill="#162447"/>
<path d="M41.3003 111.04C41.5533 111.443 41.4521 111.997 41.0474 112.249C40.6426 112.501 40.0862 112.401 39.8332 111.997C39.5803 111.594 39.6814 111.04 40.0862 110.788C40.4909 110.536 41.0474 110.637 41.3003 111.04Z" fill="#162447"/>
<path d="M44.4839 109.024C44.7368 109.427 44.6357 109.982 44.231 110.234C43.8262 110.486 43.2698 110.385 43.0168 109.982C42.7639 109.578 42.865 109.024 43.2698 108.772C43.6745 108.52 44.1804 108.621 44.4839 109.024Z" fill="#162447"/>
<path d="M47.6167 106.958C47.8697 107.361 47.7685 107.915 47.3638 108.167C46.9591 108.419 46.4026 108.319 46.1496 107.915C45.8967 107.512 45.9979 106.958 46.4026 106.706C46.8073 106.454 47.3638 106.555 47.6167 106.958Z" fill="#162447"/>
<path d="M50.8042 104.942C51.0572 105.345 50.956 105.9 50.5513 106.152C50.1466 106.404 49.5901 106.303 49.3371 105.9C49.0842 105.496 49.1854 104.942 49.5901 104.69C49.9948 104.438 50.5513 104.539 50.8042 104.942Z" fill="#162447"/>
<path d="M53.9409 102.876C54.1939 103.279 54.0927 103.833 53.688 104.085C53.2833 104.337 52.7268 104.236 52.4738 103.833C52.2209 103.43 52.3221 102.876 52.7268 102.624C53.1821 102.372 53.688 102.472 53.9409 102.876Z" fill="#162447"/>
<path d="M42.0034 119.102C42.2564 119.506 42.1552 120.06 41.7505 120.312C41.3458 120.564 40.7893 120.463 40.5363 120.06C40.2834 119.657 40.3846 119.102 40.7893 118.85C41.2446 118.548 41.7505 118.699 42.0034 119.102Z" fill="#162447"/>
<path d="M45.1948 117.036C45.4478 117.439 45.3466 117.993 44.9419 118.245C44.5372 118.497 43.9807 118.397 43.7277 117.993C43.4748 117.59 43.576 117.036 43.9807 116.784C44.3854 116.532 44.9419 116.633 45.1948 117.036Z" fill="#162447"/>
<path d="M48.3784 115.02C48.6314 115.423 48.5302 115.978 48.1255 116.229C47.7208 116.481 47.1643 116.381 46.9113 115.978C46.6584 115.574 46.7596 115.02 47.1643 114.768C47.569 114.466 48.0749 114.617 48.3784 115.02Z" fill="#162447"/>
<path d="M51.5113 112.954C51.7642 113.357 51.663 113.911 51.2583 114.163C50.8536 114.415 50.2971 114.315 50.0442 113.911C49.7912 113.508 49.8924 112.954 50.2971 112.702C50.7018 112.45 51.2583 112.551 51.5113 112.954Z" fill="#162447"/>
<path d="M54.6988 110.938C54.9517 111.341 54.8505 111.895 54.4458 112.147C54.0411 112.399 53.4846 112.299 53.2317 111.895C52.9787 111.492 53.0799 110.938 53.4846 110.686C53.8893 110.383 54.3952 110.535 54.6988 110.938Z" fill="#162447"/>
<path d="M57.8355 108.872C58.0884 109.275 57.9872 109.829 57.5825 110.081C57.1778 110.333 56.6213 110.232 56.3684 109.829C56.1154 109.426 56.2166 108.872 56.6213 108.62C57.026 108.368 57.5825 108.468 57.8355 108.872Z" fill="#162447"/>
<path d="M34.0112 106.755C34.2642 107.158 34.163 107.713 33.7583 107.965C33.3536 108.217 32.7971 108.116 32.5442 107.713C32.2912 107.309 32.3924 106.755 32.7971 106.503C33.2018 106.251 33.7583 106.402 34.0112 106.755Z" fill="#162447"/>
<path d="M37.2027 104.739C37.4556 105.143 37.3544 105.697 36.9497 105.949C36.545 106.201 35.9885 106.1 35.7356 105.697C35.4826 105.294 35.5838 104.739 35.9885 104.487C36.3932 104.235 36.9497 104.336 37.2027 104.739Z" fill="#162447"/>
<path d="M40.3394 102.673C40.5923 103.076 40.4911 103.631 40.0864 103.883C39.6817 104.135 39.1252 104.034 38.8723 103.631C38.6193 103.228 38.7205 102.673 39.1252 102.421C39.5805 102.169 40.0864 102.32 40.3394 102.673Z" fill="#162447"/>
<path d="M43.5191 100.657C43.772 101.06 43.6708 101.615 43.2661 101.867C42.8614 102.119 42.3049 102.018 42.052 101.615C41.799 101.212 41.9002 100.657 42.3049 100.405C42.7096 100.153 43.2661 100.254 43.5191 100.657Z" fill="#162447"/>
<path d="M46.6558 98.5905C46.9087 98.9937 46.8075 99.548 46.4028 99.8C45.9981 100.052 45.4416 99.9512 45.1887 99.548C44.9357 99.1449 45.0369 98.5905 45.4416 98.3385C45.8969 98.0866 46.4028 98.1874 46.6558 98.5905Z" fill="#162447"/>
<path d="M49.8433 96.5749C50.0962 96.9781 49.995 97.5324 49.5903 97.7844C49.1856 98.0364 48.6291 97.9356 48.3762 97.5324C48.1232 97.1292 48.2244 96.5749 48.6291 96.3229C49.0338 96.0709 49.5903 96.1717 49.8433 96.5749Z" fill="#162447"/>
<path d="M42.0581 114.818C42.3111 115.221 42.2099 115.776 41.8052 116.028C41.4005 116.28 40.844 116.179 40.591 115.776C40.3381 115.372 40.4393 114.818 40.844 114.566C41.2993 114.264 41.8052 114.415 42.0581 114.818Z" fill="#162447"/>
<path d="M45.2495 112.752C45.5025 113.155 45.4013 113.71 44.9966 113.962C44.5919 114.214 44.0354 114.113 43.7824 113.71C43.5295 113.306 43.6307 112.752 44.0354 112.5C44.4401 112.248 44.9966 112.349 45.2495 112.752Z" fill="#162447"/>
<path d="M48.4331 110.736C48.6861 111.139 48.5849 111.694 48.1802 111.946C47.7755 112.198 47.219 112.097 46.966 111.694C46.7131 111.29 46.8143 110.736 47.219 110.484C47.6237 110.182 48.1296 110.333 48.4331 110.736Z" fill="#162447"/>
<path d="M51.5659 108.67C51.8189 109.073 51.7177 109.627 51.313 109.879C50.9083 110.131 50.3518 110.031 50.0988 109.627C49.8459 109.224 49.9471 108.67 50.3518 108.418C50.7565 108.166 51.313 108.267 51.5659 108.67Z" fill="#162447"/>
<path d="M54.7534 106.654C55.0064 107.057 54.9052 107.612 54.5005 107.864C54.0958 108.116 53.5393 108.015 53.2863 107.612C53.0334 107.209 53.1346 106.654 53.5393 106.402C53.944 106.1 54.5005 106.251 54.7534 106.654Z" fill="#162447"/>
<path d="M57.8941 104.588C58.147 104.991 58.0458 105.545 57.6411 105.797C57.2364 106.049 56.6799 105.949 56.427 105.545C56.174 105.142 56.2752 104.588 56.6799 104.336C57.1352 104.084 57.6411 104.185 57.8941 104.588Z" fill="#162447"/>
<path d="M45.9527 121.168C46.2056 121.571 46.1044 122.126 45.6997 122.378C45.295 122.63 44.7385 122.529 44.4856 122.126C44.2326 121.723 44.3338 121.168 44.7385 120.916C45.1432 120.664 45.6997 120.765 45.9527 121.168Z" fill="#162447"/>
<path d="M49.1441 119.153C49.397 119.556 49.2958 120.11 48.8911 120.362C48.4864 120.614 47.9299 120.513 47.677 120.11C47.424 119.707 47.5252 119.153 47.9299 118.901C48.3346 118.598 48.8405 118.749 49.1441 119.153Z" fill="#162447"/>
<path d="M52.2808 117.086C52.5337 117.489 52.4325 118.044 52.0278 118.296C51.6231 118.547 51.0666 118.447 50.8137 118.044C50.5607 117.64 50.6619 117.086 51.0666 116.834C51.4713 116.582 52.0278 116.683 52.2808 117.086Z" fill="#162447"/>
<path d="M55.4605 115.07C55.7134 115.474 55.6122 116.028 55.2075 116.28C54.8028 116.532 54.2463 116.431 53.9934 116.028C53.7404 115.625 53.8416 115.07 54.2463 114.819C54.651 114.516 55.2075 114.667 55.4605 115.07Z" fill="#162447"/>
<path d="M58.5972 113.004C58.8501 113.407 58.749 113.962 58.3442 114.214C57.9395 114.466 57.383 114.365 57.1301 113.962C56.8771 113.558 56.9783 113.004 57.383 112.752C57.8383 112.5 58.3442 112.601 58.5972 113.004Z" fill="#162447"/>
<path d="M61.7847 110.988C62.0376 111.392 61.9365 111.946 61.5317 112.198C61.127 112.45 60.5705 112.349 60.3176 111.946C60.0646 111.543 60.1658 110.988 60.5705 110.736C60.9753 110.434 61.5317 110.585 61.7847 110.988Z" fill="#162447"/>
<path d="M140.237 70.9734C140.389 70.8222 140.54 70.8222 140.793 70.9734C141.147 71.175 141.35 71.5278 141.603 71.8301C142.311 72.8885 142.766 74.098 143.12 75.3075C143.222 75.7106 143.829 75.5091 143.727 75.1563C143.323 73.7956 142.817 72.3845 141.957 71.2758C141.451 70.6206 140.642 69.8647 139.832 70.5198C139.478 70.7718 139.933 71.2254 140.237 70.9734Z" fill="#FAD034"/>
<path d="M140.5 70.0664C139.589 70.8727 138.173 70.8727 137.009 70.7215C136.554 70.6711 135.896 70.6207 135.491 70.3183C135.39 70.2175 135.39 70.1671 135.34 70.1167C135.39 70.1167 135.289 70.2679 135.289 70.2679C135.289 70.2679 135.643 70.2175 135.694 70.2175C136.098 70.2175 136.098 69.6128 135.694 69.5624C135.39 69.5624 134.985 69.5624 134.783 69.8648C134.631 70.0663 134.682 70.2679 134.834 70.4695C135.137 70.9735 135.795 71.1247 136.351 71.2255C137.869 71.4775 139.741 71.5783 140.955 70.4695C141.208 70.2175 140.803 69.764 140.5 70.0664Z" fill="#FAD034"/>
<path d="M135.235 31.1603C135.842 32.3698 136.297 33.9321 136.753 35.2928C137.714 38.1654 138.625 41.038 139.485 43.961C140.446 47.3879 141.306 50.9157 141.964 54.393C142.52 57.5176 142.975 60.7934 142.773 63.9683C142.621 66.1858 142.216 69.1088 139.889 70.1167C139.535 70.2679 139.839 70.7718 140.193 70.6207C142.216 69.7639 142.925 67.4457 143.228 65.4298C143.633 62.3556 143.279 59.1807 142.824 56.1065C141.761 49.303 139.839 42.6003 137.663 36.0487C137.056 34.3353 136.55 32.4706 135.741 30.8579C135.589 30.5555 135.083 30.8075 135.235 31.1603Z" fill="#FAD034"/>
<path d="M146.113 18.8635C145.556 12.7151 140.143 8.12902 133.921 8.68339C127.749 9.23775 123.145 14.6302 123.702 20.8289C124.208 26.5741 131.897 34.2848 135.54 35.0407L135.337 37.5101L139.435 35.9982L137.766 34.5367C141.358 32.2689 146.568 24.2559 146.113 18.8635Z" fill="#FF859D" stroke="#FF859D" stroke-width="0.6233" stroke-miterlimit="10"/>
<path opacity="0.7" d="M144.444 17.9061C143.584 13.6224 139.841 10.5482 135.49 10.397C135.136 10.397 134.883 10.901 135.237 11.1026C142.522 14.6303 143.787 18.2589 143.787 18.2589C144.09 18.5109 144.495 18.2589 144.444 17.9061Z" fill="#FFC0C0" stroke="#FFC0C0" stroke-width="0.094746" stroke-miterlimit="10"/>
<path d="M127.798 27.5818C129.164 29.6481 131.441 32.4199 134.324 33.4278C134.83 33.579 135.184 32.9743 134.78 32.6215L128.456 26.9771C128.102 26.6243 127.545 27.1283 127.798 27.5818Z" fill="#FF859D" stroke="#FF859D" stroke-width="0.2034" stroke-miterlimit="10"/>
<path d="M169.329 50.4632C167.71 56.9139 164.877 63.919 158.958 67.6484C155.214 69.9666 150.864 70.4706 146.513 70.3194C144.692 70.2186 142.871 70.017 140.999 70.017C140.594 70.017 140.594 70.6721 140.999 70.6721C142.668 70.6721 144.287 70.8737 145.957 70.9745C148.031 71.0753 150.054 71.0753 152.129 70.7729C157.289 70.017 161.69 67.2452 164.675 63.0119C167.255 59.333 168.823 54.9989 169.885 50.7152C170.037 50.2112 169.43 50.06 169.329 50.4632Z" fill="#FAD034"/>
<path d="M176.308 36.3012C170.794 33.7814 164.268 36.2004 161.738 41.744C159.26 47.1364 162.497 58.1228 165.33 59.7859L162.75 61.9026L166.696 63.7672L166.494 60.0883C170.44 60.3403 179.394 55.8046 181.671 50.8153C184.251 45.2717 181.822 38.821 176.308 36.3012Z" fill="#72DEE8" stroke="#72DEE8" stroke-width="0.954" stroke-miterlimit="10"/>
<path opacity="0.7" d="M181.57 48.7492C182.278 44.1128 179.698 39.5771 175.297 37.8636C174.943 37.7124 174.487 38.166 174.791 38.4684C180.862 44.7679 180.811 48.9004 180.811 48.9004C181.013 49.2532 181.519 49.1524 181.57 48.7492Z" fill="#FFC0C0" stroke="#FFC0C0" stroke-width="0.1022" stroke-miterlimit="10"/>
<path d="M161.938 49.6059C162.241 52.2769 163.101 56.0062 165.429 58.3749C165.833 58.778 166.491 58.3749 166.289 57.8205L162.899 49.3539C162.697 48.7995 161.837 49.0011 161.938 49.6059Z" fill="#72DEE8" stroke="#72DEE8" stroke-width="0.954" stroke-miterlimit="10"/>
<path d="M156.686 124.294H94.3594V89.3693C94.3594 83.8257 98.9124 79.29 104.477 79.29H146.568C152.133 79.29 156.686 83.8257 156.686 89.3693V124.294Z" fill="#FFE3E3"/>
<path d="M172.98 175.195H78.0742V134.323C78.0742 127.369 83.7402 121.724 90.7216 121.724H160.383C167.364 121.724 173.03 127.369 173.03 134.323V175.195H172.98Z" fill="#FFE3E3"/>
<path d="M128.547 78.9369H122.273V69.8656C122.273 69.3112 122.729 68.8576 123.285 68.8576H127.535C128.091 68.8576 128.547 69.3112 128.547 69.8656V78.9369Z" fill="#F4627F"/>
<path d="M120.246 72.7383L129.302 67.0435" stroke="#FFC0C0" stroke-miterlimit="10"/>
<path d="M120.246 75.4594L129.302 69.7646" stroke="#FFC0C0" stroke-miterlimit="10"/>
<path d="M120.246 78.1812L129.302 72.4865" stroke="#FFC0C0" stroke-miterlimit="10"/>
<path d="M120.246 80.9531L129.302 75.2584" stroke="#FFC0C0" stroke-miterlimit="10"/>
<path d="M120.246 83.6743L129.302 77.9795" stroke="#FFC0C0" stroke-miterlimit="10"/>
<path d="M123.285 68.8576C122.729 68.8576 122.273 69.3111 122.273 69.8655V78.9369H123.336L123.285 68.8576Z" fill="#F4627F"/>
<path d="M120.246 72.7383L129.302 67.0435" stroke="#FFC0C0" stroke-miterlimit="10"/>
<path d="M120.246 75.4594L129.302 69.7646" stroke="#FFC0C0" stroke-miterlimit="10"/>
<path d="M120.246 78.1812L129.302 72.4865" stroke="#FFC0C0" stroke-miterlimit="10"/>
<path d="M120.246 80.9531L129.302 75.2584" stroke="#FFC0C0" stroke-miterlimit="10"/>
<path d="M120.246 83.6743L129.302 77.9795" stroke="#FFC0C0" stroke-miterlimit="10"/>
<path d="M130.08 56.1073C131.092 58.5263 131.143 61.3989 130.232 63.8683C129.878 64.8259 129.372 65.733 128.613 66.4386C127.854 67.1441 126.893 67.5977 125.881 67.5473C124.87 67.4969 123.858 66.9425 123.453 66.0354C123.099 65.3298 123.2 64.4731 123.403 63.6668C123.706 62.4572 124.313 61.3485 125.123 60.4414C126.489 58.9799 126.843 58.6775 128.714 57.1152L130.08 56.1073Z" fill="#FA6A3A"/>
<path d="M129.772 56.2077C130.581 58.2236 130.783 60.441 130.278 62.5577C129.822 64.5231 128.659 66.791 126.483 67.1942C125.472 67.3957 124.308 66.9926 123.752 66.0854C123.145 65.1279 123.499 63.8176 123.853 62.8601C124.51 61.2474 125.775 59.9371 127.09 58.778C128.052 57.9212 129.114 57.1149 130.176 56.3589C130.48 56.1574 130.176 55.6534 129.873 55.9054C128.76 56.7117 127.698 57.5684 126.635 58.4756C125.117 59.7859 123.701 61.2978 123.144 63.2632C122.841 64.3216 122.689 65.5311 123.296 66.4886C123.802 67.295 124.713 67.7485 125.674 67.8493C127.95 68.0509 129.62 66.0854 130.379 64.1704C131.391 61.6002 131.34 58.6772 130.328 56.107C130.176 55.7542 129.671 55.855 129.772 56.2077Z" fill="#FA6A3A"/>
<path d="M127.856 61.3489C128.412 62.7096 128.463 64.3223 127.957 65.683C127.754 66.2374 127.451 66.7413 127.046 67.0941C126.641 67.4973 126.085 67.7493 125.528 67.7493C124.972 67.7493 124.416 67.3965 124.163 66.8925C123.96 66.4894 124.011 65.9854 124.112 65.5822C124.264 64.9271 124.618 64.2719 125.073 63.7679C125.832 62.9112 126.034 62.76 127.097 61.9033L127.856 61.3489Z" fill="#FFC0C0"/>
<path d="M127.762 61.3489C128.217 62.4576 128.318 63.7175 128.065 64.927C127.812 66.0357 127.155 67.2956 125.94 67.5476C125.384 67.6484 124.726 67.4468 124.423 66.9429C124.119 66.3885 124.271 65.6829 124.473 65.1286C124.828 64.2214 125.586 63.5159 126.295 62.8607C126.851 62.3568 127.408 61.9032 128.015 61.5C128.166 61.3993 128.015 61.0969 127.863 61.2481C127.256 61.7016 126.649 62.1552 126.042 62.7096C125.182 63.4655 124.423 64.2718 124.069 65.3806C123.866 65.9853 123.816 66.6405 124.17 67.1948C124.473 67.6484 124.979 67.9004 125.485 67.9508C126.75 68.0516 127.711 66.9429 128.116 65.8845C128.672 64.423 128.672 62.8104 128.065 61.3489C127.964 61.0969 127.661 61.1977 127.762 61.3489Z" fill="#FFC0C0"/>
<path d="M160.275 119.506H125.52H90.7653C83.8851 119.506 78.3203 125.1 78.3203 132.055V136.187C78.3203 138.606 80.2933 140.572 82.7216 140.572H82.8228C85.2005 140.522 87.0723 138.606 87.0723 136.187C87.0723 134.424 88.4888 132.962 90.2594 132.962H91.4736C93.2442 132.962 94.6607 134.424 94.6607 136.187V136.843C94.6607 140.219 97.3925 142.991 100.782 142.991C104.121 142.991 106.903 140.219 106.903 136.843V136.187C106.903 132.76 109.686 129.989 113.075 129.989H114.593C117.982 129.989 120.765 132.76 120.765 136.187C120.765 136.389 120.765 136.54 120.765 136.742C120.765 139.362 122.89 141.479 125.47 141.479C128.05 141.479 130.174 139.362 130.174 136.742C130.174 136.54 130.174 136.389 130.174 136.187C130.174 132.76 132.957 129.989 136.346 129.989H137.864C141.254 129.989 144.036 132.76 144.036 136.187V136.843C144.036 140.219 146.768 142.991 150.157 142.991C153.496 142.991 156.279 140.219 156.279 136.843V136.187C156.279 134.424 157.695 132.962 159.466 132.962H160.68C162.451 132.962 163.867 134.424 163.867 136.187C163.867 138.556 165.789 140.522 168.117 140.572H168.218C170.646 140.622 172.619 138.657 172.619 136.187V132.055C172.67 125.1 167.155 119.506 160.275 119.506Z" fill="#FF859D" stroke="#FF859D" stroke-width="0.9428" stroke-miterlimit="10"/>
<path d="M148.447 79.2393H125.53H102.613C98.111 79.2393 94.418 82.9686 94.418 87.5547V90.276C94.418 91.8887 95.7333 93.199 97.3016 93.1486H97.4027C98.971 93.1486 100.236 91.8383 100.236 90.276C100.236 89.1169 101.197 88.1594 102.361 88.1594H103.17C104.333 88.1594 105.295 89.1169 105.295 90.276V90.6792C105.295 92.9471 107.116 94.7613 109.342 94.7613C111.568 94.7613 113.389 92.9471 113.389 90.6792V90.276C113.389 88.0082 115.21 86.1436 117.436 86.1436H118.448C120.674 86.1436 122.495 88.0082 122.495 90.276C122.495 90.3768 122.495 90.528 122.495 90.6288C122.495 92.3423 123.861 93.7534 125.581 93.7534C127.301 93.7534 128.667 92.3423 128.667 90.6288C128.667 90.528 128.667 90.3768 128.667 90.276C128.667 88.0082 130.488 86.1436 132.714 86.1436H133.726C135.952 86.1436 137.773 88.0082 137.773 90.276V90.6792C137.773 92.9471 139.594 94.7613 141.82 94.7613C144.046 94.7613 145.867 92.9471 145.867 90.6792V90.276C145.867 89.1169 146.829 88.1594 147.992 88.1594H148.802C149.965 88.1594 150.926 89.1169 150.926 90.276C150.926 91.8383 152.191 93.1486 153.759 93.1486H153.861C155.429 93.1486 156.744 91.8887 156.744 90.276V87.5547C156.643 82.9686 153 79.2393 148.447 79.2393Z" fill="#FF859D" stroke="#FF859D" stroke-width="0.6233" stroke-miterlimit="10"/>
<path d="M96.0786 88.5123C96.6351 80.4489 104.325 79.1386 104.325 79.1386C98.5069 78.5842 94.2068 81.8096 94.1562 88.5123V119.304H96.1292L96.0786 88.5123Z" fill="#FF7B95"/>
<path d="M80.857 132.509C81.6159 121.522 92.0879 119.708 92.0879 119.708C84.1453 118.952 78.3275 123.387 78.1758 132.509V174.489H80.9076L80.857 132.509Z" fill="#FF7B95"/>
<path d="M154.863 88.5123C154.307 80.4489 146.617 79.1386 146.617 79.1386C152.435 78.5842 156.735 81.8096 156.786 88.5123V119.304H154.813L154.863 88.5123Z" fill="#FF7B95"/>
<path d="M170.399 132.509C169.64 121.522 159.168 119.708 159.168 119.708C167.111 118.952 172.928 123.387 173.08 132.509V174.489H170.348L170.399 132.509Z" fill="#FF7B95"/>
<path d="M148.645 106.957L156.739 112.4L156.688 109.074L148.645 106.957Z" fill="#EAE6DA"/>
<path d="M94.1094 119.657C97.2965 117.742 117.077 116.482 126.132 116.482C136.503 116.482 154.665 118.246 156.587 119.405" fill="#FF7B95"/>
<path d="M90.5133 167.635C87.3262 167.635 84.7461 170.205 84.7461 173.38H96.2805C96.2299 170.205 93.6498 167.635 90.5133 167.635Z" fill="#F06E88"/>
<path d="M102.201 167.635C99.0137 167.635 96.4336 170.205 96.4336 173.38H107.968C107.968 170.205 105.388 167.635 102.201 167.635Z" fill="#F06E88"/>
<path d="M113.931 167.635C110.744 167.635 108.164 170.205 108.164 173.38H119.698C119.698 170.205 117.118 167.635 113.931 167.635Z" fill="#F06E88"/>
<path d="M125.619 167.635C122.432 167.635 119.852 170.205 119.852 173.38H131.386C131.386 170.205 128.806 167.635 125.619 167.635Z" fill="#F06E88"/>
<path d="M137.357 167.635C134.17 167.635 131.59 170.205 131.59 173.38H143.124C143.124 170.205 140.544 167.635 137.357 167.635Z" fill="#F06E88"/>
<path d="M149.048 167.635C145.861 167.635 143.281 170.205 143.281 173.38H154.816C154.816 170.205 152.236 167.635 149.048 167.635Z" fill="#F06E88"/>
<path d="M161.08 167.635C157.893 167.635 155.312 170.205 155.312 173.38H166.847C166.847 170.205 164.267 167.635 161.08 167.635Z" fill="#F06E88"/>
<path d="M78.7828 169.248C75.5957 169.248 73.0156 171.818 73.0156 174.993H84.55C84.55 171.818 81.97 169.248 78.7828 169.248Z" fill="#FF859D" stroke="#FF859D" stroke-width="0.5433" stroke-miterlimit="10"/>
<path d="M90.5211 169.248C87.334 169.248 84.7539 171.818 84.7539 174.993H96.2883C96.2377 171.818 93.6576 169.248 90.5211 169.248Z" fill="#FF859D" stroke="#FF859D" stroke-width="0.5433" stroke-miterlimit="10"/>
<path d="M102.205 169.248C99.0176 169.248 96.4375 171.818 96.4375 174.993H107.972C107.972 171.818 105.392 169.248 102.205 169.248Z" fill="#FF859D" stroke="#FF859D" stroke-width="0.5433" stroke-miterlimit="10"/>
<path d="M113.943 169.248C110.756 169.248 108.176 171.818 108.176 174.993H119.71C119.71 171.818 117.13 169.248 113.943 169.248Z" fill="#FF859D" stroke="#FF859D" stroke-width="0.5433" stroke-miterlimit="10"/>
<path d="M125.627 169.248C122.439 169.248 119.859 171.818 119.859 174.993H131.394C131.394 171.818 128.814 169.248 125.627 169.248Z" fill="#FF859D" stroke="#FF859D" stroke-width="0.5433" stroke-miterlimit="10"/>
<path d="M137.369 169.248C134.182 169.248 131.602 171.818 131.602 174.993H143.136C143.136 171.818 140.556 169.248 137.369 169.248Z" fill="#FF859D" stroke="#FF859D" stroke-width="0.5433" stroke-miterlimit="10"/>
<path d="M149.048 169.248C145.861 169.248 143.281 171.818 143.281 174.993H154.816C154.816 171.818 152.236 169.248 149.048 169.248Z" fill="#FF859D" stroke="#FF859D" stroke-width="0.5433" stroke-miterlimit="10"/>
<path d="M161.088 169.248C157.9 169.248 155.32 171.818 155.32 174.993H166.855C166.855 171.818 164.275 169.248 161.088 169.248Z" fill="#FF859D" stroke="#FF859D" stroke-width="0.5433" stroke-miterlimit="10"/>
<path d="M172.525 169.248C169.338 169.248 166.758 171.818 166.758 174.993H178.292C178.292 171.818 175.712 169.248 172.525 169.248Z" fill="#FF859D" stroke="#FF859D" stroke-width="0.5433" stroke-miterlimit="10"/>
<path d="M172.063 98.7927C171.912 96.4745 171.608 92.846 169.483 91.7372C168.219 91.0821 167.713 92.9972 167.308 95.2146L167.004 105.697C166.751 107.612 165.689 107.108 162.198 106.503C160.428 106.201 154.964 105.092 154.964 105.092C154.914 105.042 154.914 105.042 154.914 105.042C154.914 105.042 152.839 102.068 152.384 102.119C151.878 102.169 153.345 104.336 153.345 104.336C153.345 104.336 149.652 103.026 148.893 102.724C148.236 102.472 150.36 104.135 151.575 104.79C150.462 104.437 148.539 103.883 148.135 103.883C147.578 103.883 149.652 105.143 150.816 105.647C149.855 105.445 148.135 105.193 147.831 105.294C147.426 105.495 151.22 106.503 151.22 106.503C151.22 106.503 149.703 106.856 148.59 106.604C147.477 106.352 148.995 107.511 153.952 108.368C154.205 108.418 154.408 108.418 154.61 108.469C156.532 108.973 164.02 111.039 166.701 111.442C168.522 111.694 170.546 112.349 171.406 106.453C171.406 106.503 172.266 102.169 172.063 98.7927Z" fill="#FFB991" stroke="#FFB991" stroke-width="0.7423" stroke-miterlimit="10" stroke-linecap="round" stroke-linejoin="round"/>
<path d="M171.758 102.421L166.75 105.243L166.902 102.119L171.758 102.421Z" fill="#D46A4C"/>
<path d="M173.277 102.673C173.125 100.355 173.277 88.2599 167.459 89.9733C165.992 90.3765 165.233 91.334 164.879 93.5515L165.233 102.774L173.277 102.673Z" fill="#C2A7EB" stroke="#C2A7EB" stroke-miterlimit="10"/>
<path d="M29.3982 57.7702C15.6885 71.1252 5.16587 86.7481 1.52344 105.445" stroke="#FAD034" stroke-miterlimit="10"/>
<path d="M40.7281 36.6038C35.9221 34.2351 30.0538 36.2006 27.6761 41.0386C25.6019 45.2215 27.2714 53.3353 29.4973 56.2583L27.6761 56.9135L30.5091 59.4333L31.1162 57.3671C34.3033 57.871 42.9035 54.0913 45.1294 49.606C47.5071 44.768 45.5341 38.9724 40.7281 36.6038Z" fill="#FF859D" stroke="#FF859D" stroke-width="0.6233" stroke-miterlimit="10"/>
<path opacity="0.7" d="M40.5705 38.9723C43.8588 40.837 45.4271 44.7175 44.3647 48.2957C44.2635 48.598 43.7576 48.6484 43.707 48.346C42.7458 41.4417 40.0646 39.3755 40.0646 39.3755C39.9634 39.0731 40.3175 38.8211 40.5705 38.9723Z" fill="#FFC0C0" stroke="#FFC0C0" stroke-width="0.081936" stroke-miterlimit="10"/>
<path d="M29.9004 54.6458C28.8886 52.7812 27.6745 49.9086 28.1298 47.2879C28.1804 46.8344 28.838 46.8344 28.9392 47.2375L30.6592 54.3434C30.7604 54.8474 30.1028 55.0994 29.9004 54.6458Z" fill="#FF859D" stroke="#FF859D" stroke-width="0.1759" stroke-miterlimit="10"/>
<path d="M17.6644 26.6758C14.8314 39.678 7.79947 80.2975 1.27344 91.8887" stroke="#FAD034" stroke-miterlimit="10"/>
<path d="M26.1623 1.47749C20.3445 -0.286379 14.2232 2.98939 12.4526 8.78497C10.9349 13.8246 14.2738 22.5432 17.3092 25.4158L15.4373 26.4741L19.0292 28.7419L19.3327 26.3733C22.9752 26.3733 31.8789 20.5777 33.4978 15.1349C35.2684 9.33933 31.9801 3.24137 26.1623 1.47749Z" fill="#72DEE8" stroke="#72DEE8" stroke-width="0.954" stroke-miterlimit="10"/>
<path opacity="0.7" d="M28.4387 3.49347C32.0811 6.46686 33.1941 11.5569 31.0693 15.7398C30.867 16.0926 30.2599 16.0422 30.2599 15.639C30.5634 6.92043 27.7304 3.89664 27.7304 3.89664C27.6799 3.49347 28.1352 3.24148 28.4387 3.49347Z" fill="#FFC0C0" stroke="#FFC0C0" stroke-width="0.1022" stroke-miterlimit="10"/>
<path d="M17.0075 22.795C15.4898 20.5775 13.6686 17.201 13.8709 13.8748C13.9215 13.3205 14.6804 13.2197 14.8321 13.7236L17.8675 22.291C18.0699 22.8958 17.3616 23.299 17.0075 22.795Z" fill="#72DEE8" stroke="#72DEE8" stroke-width="0.954" stroke-miterlimit="10"/>
<path d="M218.039 65.178C218.697 67.4459 228.663 98.742 253.401 108.62" stroke="#FAD034" stroke-miterlimit="10"/>
<path d="M220.962 48.8998C218.787 44.0113 213.02 41.7939 208.113 43.9609C203.205 46.128 200.979 51.8732 203.155 56.7616C205.178 61.3477 213.677 65.4802 216.865 65.077L217.421 67.1433L220.355 64.7242L218.585 64.0187C220.861 61.1965 222.885 53.1331 220.962 48.8998Z" fill="#C2A7EB" stroke="#C2A7EB" stroke-miterlimit="10"/>
<path opacity="0.7" d="M208.168 46.38C204.829 48.0934 203.109 51.9236 204.019 55.5521C204.12 55.8545 204.576 55.9049 204.677 55.6025C205.942 48.7486 208.673 46.7831 208.673 46.7831C208.775 46.4808 208.471 46.2288 208.168 46.38Z" fill="#FFC0C0" stroke="#FFC0C0" stroke-width="0.081936" stroke-miterlimit="10"/>
<path d="M218.231 62.4564C219.344 60.5917 220.609 57.8199 220.255 55.1489C220.204 54.6953 219.597 54.6449 219.445 55.0985L217.472 62.154C217.371 62.6076 217.978 62.8595 218.231 62.4564Z" fill="#C2A7EB" stroke="#C2A7EB" stroke-width="0.1759" stroke-miterlimit="10"/>
<path d="M231.199 34.0841C239.395 94.8622 253.863 102.926 253.357 104.085" stroke="#FAD034" stroke-miterlimit="10"/>
<path d="M237.424 17.302C235.906 11.456 229.886 7.92823 224.018 9.49052C218.149 11.0024 214.608 16.9996 216.176 22.8456C217.593 28.2884 226.294 34.4367 229.886 34.5879L230.089 37.0069L233.782 34.8903L231.91 33.7312C235.097 30.9594 238.79 22.3416 237.424 17.302Z" fill="#ED7321" stroke="#ED7321" stroke-width="0.954" stroke-miterlimit="10"/>
<path opacity="0.7" d="M221.69 11.3552C217.946 14.1774 216.631 19.2674 218.604 23.5007C218.756 23.8535 219.413 23.8535 219.413 23.4503C219.464 14.7317 222.398 11.8087 222.398 11.8087C222.449 11.4056 221.993 11.1032 221.69 11.3552Z" fill="#FFC0C0" stroke="#FFC0C0" stroke-width="0.1022" stroke-miterlimit="10"/>
<path d="M232.372 31.1105C233.991 28.9434 235.964 25.6677 235.863 22.3415C235.863 21.7871 235.104 21.6359 234.902 22.1399L231.512 30.6065C231.31 31.1609 232.018 31.6144 232.372 31.1105Z" fill="#ED7321" stroke="#ED7321" stroke-width="0.954" stroke-miterlimit="10"/>
</svg>
