<?xml version="1.0" standalone="no"?>
<!DOCTYPE svg PUBLIC "-//W3C//DTD SVG 20010904//EN"
 "http://www.w3.org/TR/2001/REC-SVG-20010904/DTD/svg10.dtd">
<svg version="1.0" xmlns="http://www.w3.org/2000/svg"
 width="2480.000000pt" height="2480.000000pt" viewBox="0 0 2480.000000 2480.000000"
 preserveAspectRatio="xMidYMid meet">
<metadata>
Created by potrace 1.16, written by Peter Selinger 2001-2019
</metadata>
<g transform="translate(0.000000,2480.000000) scale(0.100000,-0.100000)"
fill="#000000" stroke="none">
<path d="M21571 15431 c-7 -59 -10 -118 -6 -130 4 -12 2 -21 -4 -21 -6 0 -11
-9 -11 -21 0 -11 5 -17 10 -14 14 8 13 -18 -1 -32 -14 -14 -3 -34 14 -27 10 3
13 -7 11 -38 -3 -58 -6 -60 -14 -13 l-6 40 -9 -29 c-5 -18 -4 -36 3 -47 8 -13
8 -18 -3 -23 -8 -3 -16 3 -19 12 -3 9 -3 -1 0 -23 3 -22 6 -48 5 -57 0 -10 4
-18 9 -18 5 0 8 -61 7 -134 -1 -97 2 -139 11 -147 14 -15 16 -43 2 -34 -5 3
-14 20 -19 38 -8 28 -9 29 -10 7 0 -14 4 -47 8 -73 4 -26 5 -50 1 -52 -10 -6
-11 -197 -1 -233 7 -24 7 -34 -2 -38 -8 -3 -11 -22 -10 -52 2 -38 1 -42 -7
-22 -8 21 -9 19 -7 -17 1 -46 -9 -66 -23 -43 -7 11 -10 3 -10 -27 0 -24 -4
-43 -9 -43 -5 0 -12 -25 -16 -56 -8 -63 -29 -122 -39 -106 -3 6 -2 22 4 37 5
14 10 42 10 62 0 30 -2 34 -15 23 -8 -7 -15 -9 -15 -4 0 4 -6 2 -12 -4 -10
-10 -10 -15 1 -21 9 -6 10 -14 5 -22 -5 -8 -9 -16 -10 -19 0 -3 -4 -12 -7 -20
-4 -8 -11 -35 -16 -60 l-9 -45 -1 58 c-1 32 4 67 9 78 6 10 20 108 31 217 10
108 21 204 24 212 2 8 7 51 10 95 3 44 10 112 15 150 11 79 37 281 51 395 18
158 19 166 10 140 -5 -14 -9 -40 -10 -58 -1 -18 -5 -40 -10 -50 -10 -18 -56
-345 -66 -472 -3 -41 -10 -102 -15 -135 -5 -33 -16 -126 -26 -207 -9 -82 -21
-148 -26 -148 -4 0 -5 -17 -2 -39 4 -25 2 -41 -6 -46 -10 -6 -11 13 -6 86 4
52 11 114 16 139 5 25 11 81 14 125 3 44 10 107 16 140 10 60 14 132 6 124 -8
-8 -49 -318 -44 -336 4 -19 -26 -163 -32 -153 -10 16 -20 -13 -19 -53 l2 -32
7 35 c4 24 9 30 13 20 4 -8 1 -46 -7 -85 -14 -69 -14 -69 -16 -25 -2 41 -3 38
-11 -25 -5 -38 -7 -85 -4 -102 4 -22 2 -33 -6 -33 -8 0 -9 -10 -5 -31 4 -20 1
-35 -8 -45 -8 -7 -17 -33 -21 -56 -13 -88 -49 -251 -53 -239 -2 6 4 59 14 119
9 59 17 143 17 187 0 56 2 73 8 55 6 -16 6 -9 2 20 -8 55 -6 132 7 227 6 44 6
81 0 95 -5 13 -10 19 -11 13 -6 -38 -10 -89 -10 -142 1 -35 -4 -63 -9 -63 -6
0 -10 -10 -10 -22 0 -13 -7 -36 -15 -52 -8 -15 -12 -32 -9 -37 6 -11 -18 -212
-26 -219 -4 -3 -9 -12 -12 -20 -3 -8 -4 15 -2 53 1 37 -2 67 -7 67 -5 0 -9
-12 -10 -27 -1 -39 -4 -55 -27 -163 -11 -52 -24 -115 -28 -140 -15 -93 -14
-16 0 112 9 73 16 142 16 152 0 27 -10 14 -15 -20 -3 -16 -11 -61 -19 -100 -8
-39 -16 -97 -19 -128 -5 -78 -17 -83 -17 -7 0 46 -3 62 -12 58 -7 -2 -13 -18
-13 -35 1 -18 -2 -32 -6 -32 -19 0 -28 32 -24 90 2 37 0 59 -5 54 -5 -5 -12
-58 -15 -119 -4 -80 -9 -113 -20 -121 -18 -13 -21 -95 -4 -92 6 2 13 -5 14
-15 3 -15 1 -16 -12 -5 -15 12 -15 10 -8 -17 4 -16 7 -38 7 -47 0 -10 4 -18 9
-18 5 0 2 -11 -7 -25 -9 -14 -20 -22 -25 -19 -12 7 -11 -7 1 -26 9 -13 11 -13
20 0 10 13 11 13 9 0 -4 -39 2 -60 18 -60 9 0 14 -3 11 -6 -4 -3 0 -17 7 -31
8 -15 12 -30 9 -35 -3 -4 0 -8 6 -8 6 0 18 -7 27 -15 8 -9 29 -15 48 -13 39 2
49 18 65 98 6 30 18 84 25 120 l14 65 -4 -55 c-3 -30 -8 -83 -12 -116 -7 -72
1 -114 22 -114 19 0 55 -36 55 -55 0 -9 -9 -15 -25 -15 -15 0 -41 -15 -65 -36
-31 -28 -40 -32 -40 -19 0 17 -1 17 -21 -1 -27 -24 -85 -107 -81 -116 1 -4 -5
-5 -12 -2 -8 3 -19 -3 -25 -14 -11 -22 -435 -452 -445 -452 -3 0 -6 664 -6
1475 l0 1475 -450 0 -450 0 0 -1535 0 -1535 450 0 c430 0 450 1 450 18 0 19
275 303 344 356 21 15 68 58 105 95 37 36 102 98 145 136 43 39 93 87 113 107
23 24 54 43 89 54 30 9 54 20 54 24 0 5 15 17 33 28 18 10 56 53 85 94 41 62
58 101 91 209 104 347 167 644 186 883 8 93 12 173 9 178 -4 6 -19 -4 -35 -21
-15 -17 -32 -31 -37 -31 -5 0 -15 -13 -22 -29 -6 -16 -25 -39 -41 -52 -16 -12
-29 -30 -29 -40 0 -11 -4 -19 -9 -19 -14 0 -24 56 -15 82 4 13 6 39 6 58 -1
19 4 71 12 115 8 44 17 107 20 140 4 33 18 161 32 285 24 221 37 345 36 365
-1 6 -3 60 -6 120 -5 101 -22 234 -25 193 0 -10 -6 -18 -12 -18 -8 0 -9 15 -5
45 6 40 5 45 -12 45 -16 0 -20 -13 -31 -109z"/>
<path d="M14038 15249 c-589 -42 -962 -399 -1028 -984 -6 -54 -10 -488 -10
-1094 0 -609 -4 -1001 -9 -995 -8 8 -237 441 -672 1273 l-128 244 21 41 c27
54 711 1336 749 1404 l29 52 -463 0 -462 0 -144 -350 c-79 -192 -147 -350
-150 -350 -3 0 -85 156 -181 346 -96 190 -179 348 -185 350 -5 2 -218 3 -472
2 l-463 -3 121 -230 c67 -126 244 -465 395 -751 151 -287 274 -527 274 -533 0
-11 -786 -1463 -826 -1528 l-14 -23 469 0 469 0 158 370 c88 204 162 370 166
370 3 0 91 -166 195 -370 l188 -370 918 0 917 0 0 365 0 365 135 0 135 0 0
405 0 405 -135 0 -135 0 0 178 c0 235 12 340 45 408 37 75 87 104 179 104 106
0 155 -36 181 -135 13 -52 15 -190 15 -1077 l0 -1018 455 0 455 0 0 1033 c0
649 -4 1075 -11 1147 -44 483 -236 770 -594 889 -159 53 -377 75 -587 60z"/>
<path d="M16620 15249 c-199 -16 -389 -79 -539 -180 -92 -61 -208 -172 -267
-254 -47 -65 -116 -203 -143 -285 -57 -173 -54 -123 -58 -1312 l-4 -1098 451
0 450 0 0 963 c0 529 5 1002 10 1050 10 97 36 156 83 191 23 17 43 21 110 21
102 0 137 -21 176 -104 l26 -56 3 -1032 3 -1033 450 0 450 0 -4 1108 c-3 1079
-4 1109 -24 1202 -113 516 -413 781 -927 820 -72 5 -133 9 -136 9 -3 -1 -52
-6 -110 -10z"/>
<path d="M2570 14750 l0 -440 350 0 350 0 0 -1095 0 -1095 450 0 450 0 0 1095
0 1095 350 0 350 0 0 440 0 440 -1150 0 -1150 0 0 -440z"/>
<path d="M5100 13656 l0 -1536 455 0 455 0 0 1125 0 1125 139 0 c207 0 296
-33 341 -126 19 -38 22 -57 18 -119 -6 -98 -37 -150 -110 -190 -46 -25 -66
-30 -150 -33 l-98 -4 0 -391 0 -391 223 -498 222 -498 473 0 c259 0 472 3 472
6 0 3 -117 287 -260 631 l-260 626 98 96 c213 208 305 419 304 696 0 214 -47
381 -150 541 -163 250 -395 394 -732 451 -79 13 -210 17 -767 20 l-673 5 0
-1536z"/>
<path d="M8555 15183 c-414 -26 -696 -212 -814 -539 -56 -156 -56 -153 -56
-994 0 -768 0 -776 22 -862 86 -336 296 -539 645 -623 141 -34 319 -45 731
-45 l347 0 0 439 0 440 -392 3 c-348 3 -397 5 -424 20 -40 22 -59 68 -58 140
1 70 21 103 77 129 39 17 70 19 390 19 l347 0 0 339 0 340 -322 3 c-293 3
-327 5 -361 22 -49 24 -71 66 -71 138 -1 68 20 103 80 133 36 19 62 20 387 23
l347 3 0 439 0 440 -412 -2 c-227 -1 -435 -3 -463 -5z"/>
<path d="M18260 13655 l0 -1535 455 0 455 0 0 580 0 580 125 0 125 0 0 405 0
405 -125 0 -125 0 0 550 0 550 -455 0 -455 0 0 -1535z"/>
<path d="M21536 13145 c-9 -25 -8 -26 27 -20 21 4 39 1 52 -9 18 -13 15 -14
-38 -13 -54 2 -58 0 -63 -23 -3 -14 -7 -31 -9 -37 -5 -16 26 -33 59 -33 15 0
34 -5 44 -10 9 -6 55 -19 102 -29 47 -11 105 -24 129 -31 31 -7 47 -8 55 0 13
13 46 13 46 0 0 -5 -8 -10 -17 -10 -26 0 -3 -15 42 -28 56 -16 84 -7 82 26 -2
22 3 27 23 30 34 3 61 -14 41 -27 -7 -5 -10 -14 -7 -20 4 -6 0 -11 -10 -11
-14 0 -14 -2 -3 -16 9 -11 23 -14 46 -11 20 4 31 2 28 -4 -4 -5 1 -9 10 -9 10
0 15 6 12 13 -3 9 5 13 26 12 17 0 32 -6 35 -14 3 -10 -1 -12 -17 -8 -11 3
-24 1 -27 -4 -3 -5 4 -9 15 -9 10 0 22 -6 24 -12 4 -10 6 -10 6 0 1 6 8 12 16
12 8 0 15 5 15 10 0 6 6 9 13 8 6 -2 11 3 10 10 -4 17 14 15 21 -3 3 -8 16
-15 30 -15 14 0 28 -5 32 -12 5 -8 -8 -9 -49 -5 -68 8 -85 -8 -25 -23 24 -6
79 -22 124 -35 44 -14 90 -23 102 -20 12 2 22 -1 22 -7 0 -6 9 -8 20 -5 11 3
18 2 16 -2 -3 -4 13 -12 35 -18 21 -5 39 -7 39 -3 0 5 21 2 47 -6 25 -8 51
-14 57 -14 19 1 -47 26 -101 39 -59 15 -92 41 -50 41 13 0 53 -11 89 -24 35
-13 125 -41 198 -60 74 -20 144 -40 155 -45 34 -15 101 -31 126 -31 49 1 -63
41 -159 57 -18 3 -35 9 -38 14 -3 5 -14 9 -26 9 -11 0 -34 6 -51 14 -18 7 -59
22 -92 31 -60 18 -110 44 -101 52 3 3 24 -2 48 -10 24 -9 102 -34 173 -56 72
-23 137 -45 146 -50 9 -6 34 -13 55 -16 22 -4 75 -17 119 -30 96 -29 277 -74
323 -82 18 -3 32 -1 32 5 0 5 -19 12 -42 16 -22 4 -46 10 -52 14 -6 4 -22 7
-36 8 -33 2 -217 54 -344 98 -55 19 -155 49 -221 66 -66 18 -157 47 -202 66
-45 19 -92 34 -105 34 -28 0 -128 26 -137 36 -16 18 223 -34 282 -61 31 -14
59 -25 62 -25 4 0 21 -6 38 -14 18 -8 66 -22 107 -31 41 -10 109 -28 150 -41
208 -65 242 -75 248 -70 3 3 3 8 1 10 -12 10 -144 57 -214 76 -223 60 -226 61
-180 70 28 6 25 8 -33 25 -34 10 -65 22 -68 26 -7 12 13 11 53 0 18 -5 35 -6
37 -2 3 4 -47 22 -112 40 -64 18 -133 37 -152 42 -19 6 -48 14 -65 18 -18 4
-29 13 -28 22 2 8 -10 19 -25 25 -32 14 -144 36 -149 30 -2 -2 29 -14 69 -27
49 -16 66 -25 50 -27 -12 -2 -38 2 -58 8 -19 7 -38 10 -41 7 -5 -6 43 -21 105
-33 18 -4 35 -11 38 -15 3 -5 16 -9 28 -9 27 0 225 -56 235 -66 6 -6 -76 3
-108 12 -9 3 -5 -2 9 -10 31 -19 18 -20 -40 -2 -25 7 -38 15 -30 18 9 3 -4 11
-29 17 -24 7 -51 16 -60 21 -9 4 -43 14 -76 20 -33 7 -71 16 -84 21 -17 7 -27
6 -35 -2 -7 -8 -7 -10 0 -6 6 3 22 0 37 -8 14 -7 40 -16 57 -20 17 -4 29 -9
27 -12 -6 -5 -188 38 -200 47 -4 3 7 5 24 4 62 -4 12 16 -69 28 -55 8 -82 16
-82 25 0 9 9 12 28 8 l27 -6 -24 14 c-26 15 -55 12 -45 -5 10 -16 -237 8 -248
25 -3 6 -35 11 -70 13 -36 2 -71 4 -79 6 -9 2 -13 -4 -11 -14 2 -15 -5 -18
-37 -18 -22 0 -43 5 -46 10 -4 7 8 8 37 4 25 -4 40 -3 35 2 -5 5 -12 9 -15 9
-47 4 -66 37 -24 43 26 4 30 22 5 22 -19 0 -55 -19 -38 -20 15 -1 -26 -30 -42
-30 -7 0 -13 5 -13 10 0 6 7 10 15 10 33 0 12 18 -27 24 -24 4 -53 9 -64 12
-14 4 -23 0 -28 -11z"/>
<path d="M4960 11390 c-218 -23 -393 -141 -480 -322 -67 -140 -69 -163 -70
-835 l0 -593 250 0 250 0 0 549 c0 321 4 571 10 602 13 71 44 99 106 99 25 0
54 -5 66 -11 47 -25 48 -40 48 -659 l0 -580 256 0 255 0 -4 623 c-4 697 -4
696 -77 843 -104 212 -325 315 -610 284z"/>
<path d="M6570 11390 c-336 -35 -613 -256 -719 -575 -146 -438 45 -934 435
-1128 237 -119 527 -107 727 29 239 164 322 449 206 713 -11 25 -39 74 -62
109 l-42 62 -237 0 -238 0 0 -195 0 -195 83 0 c91 0 107 -8 107 -51 0 -44 -32
-59 -125 -59 -188 0 -315 88 -366 253 -30 97 -24 228 14 312 37 79 113 156
191 191 99 45 270 45 389 -1 16 -7 17 9 17 242 l0 250 -37 11 c-111 31 -236
43 -343 32z"/>
<path d="M9530 11390 c-212 -32 -400 -191 -472 -399 -19 -55 -23 -87 -23 -186
0 -148 19 -214 112 -400 70 -139 80 -183 49 -230 -40 -61 -141 -84 -223 -50
-19 8 -37 15 -39 15 -3 0 -3 -109 -2 -242 l3 -243 70 -24 c87 -29 228 -32 324
-7 214 55 392 236 436 443 36 168 6 303 -113 515 -80 143 -81 211 -5 278 31
27 40 30 104 30 l69 0 -2 238 -3 237 -45 11 c-68 17 -178 23 -240 14z"/>
<path d="M12840 11390 c-213 -21 -395 -108 -547 -262 -118 -119 -192 -246
-234 -403 -18 -65 -22 -108 -22 -230 0 -183 18 -261 94 -414 107 -212 315
-382 545 -445 139 -37 368 -38 504 -2 254 67 441 231 552 481 35 80 77 226 85
296 l6 56 -259 6 c-143 3 -260 4 -261 3 -2 -2 -7 -27 -13 -57 -14 -75 -60
-169 -105 -214 -21 -21 -63 -49 -94 -64 -50 -23 -68 -26 -166 -26 -98 0 -116
3 -165 26 -73 34 -136 99 -174 179 -29 60 -31 73 -31 170 0 79 5 118 19 156
40 109 130 197 234 230 76 24 221 16 280 -15 83 -43 153 -128 197 -238 1 -4
526 35 530 39 7 6 -28 122 -59 198 -125 306 -387 498 -723 530 -60 5 -110 9
-113 9 -3 -1 -39 -5 -80 -9z"/>
<path d="M15705 11390 c-290 -34 -488 -223 -534 -511 -7 -39 -11 -291 -11
-651 l0 -588 250 0 250 0 0 549 c0 321 4 571 10 602 13 71 44 99 106 99 25 0
54 -5 66 -11 47 -25 48 -40 48 -659 l0 -580 256 0 255 0 -4 623 c-4 697 -4
696 -76 842 -106 214 -330 318 -616 285z"/>
<path d="M3674 11349 c-175 -22 -283 -85 -365 -211 -71 -110 -74 -136 -74
-638 0 -487 1 -499 63 -613 34 -63 126 -148 196 -181 103 -49 162 -57 449 -63
l267 -6 0 251 0 251 -231 3 c-261 3 -259 3 -259 84 0 34 5 47 26 63 25 20 39
21 230 21 l204 0 0 189 0 190 -196 3 c-192 3 -196 3 -215 27 -10 13 -19 36
-19 51 0 82 24 90 265 90 l195 0 0 250 0 250 -237 -1 c-131 -1 -266 -5 -299
-10z"/>
<path d="M7392 10738 c4 -553 6 -630 21 -683 59 -205 198 -344 389 -390 35 -8
118 -18 186 -22 l122 -6 0 251 0 252 -52 0 c-71 0 -118 25 -143 75 -19 38 -20
63 -23 593 l-3 552 -250 0 -250 0 3 -622z"/>
<path d="M8230 10500 l0 -860 250 0 250 0 0 860 0 860 -250 0 -250 0 0 -860z"/>
<path d="M10020 10500 l0 -860 250 0 250 0 0 325 0 325 70 0 70 0 0 225 0 225
-70 0 -70 0 0 310 0 310 -250 0 -250 0 0 -860z"/>
<path d="M10760 10500 l0 -860 250 0 250 0 0 860 0 860 -250 0 -250 0 0 -860z"/>
<path d="M14424 11349 c-175 -22 -283 -85 -365 -211 -71 -110 -74 -136 -74
-638 0 -487 1 -499 63 -613 34 -63 126 -148 196 -181 103 -49 162 -57 449 -63
l267 -6 0 251 0 251 -231 3 c-261 3 -259 3 -259 84 0 34 5 47 26 63 25 20 39
21 230 21 l204 0 0 189 0 190 -196 3 c-192 3 -196 3 -215 27 -10 13 -19 36
-19 51 0 82 24 90 265 90 l195 0 0 250 0 250 -237 -1 c-131 -1 -266 -5 -299
-10z"/>
<path d="M16500 11110 l0 -250 195 0 195 0 0 -610 0 -610 255 0 255 0 0 610 0
610 195 0 195 0 0 250 0 250 -645 0 -645 0 0 -250z"/>
<path d="M18325 11350 c-171 -20 -284 -86 -366 -212 -71 -110 -74 -136 -74
-638 0 -487 1 -499 63 -613 34 -63 126 -148 196 -181 103 -49 162 -57 449 -63
l267 -6 0 251 0 251 -231 3 c-261 3 -259 3 -259 84 0 34 5 47 26 63 25 20 39
21 230 21 l204 0 0 189 0 190 -196 3 c-192 3 -196 3 -215 27 -10 13 -19 36
-19 51 0 82 24 90 265 90 l195 0 0 250 0 250 -237 -1 c-131 -1 -265 -5 -298
-9z"/>
<path d="M19100 10501 l0 -861 250 0 250 0 0 626 0 626 104 -4 c119 -3 151
-18 175 -81 11 -30 11 -42 0 -79 -20 -60 -64 -88 -140 -88 l-59 0 0 -216 0
-217 126 -283 127 -284 263 0 263 0 -13 33 c-8 17 -73 175 -145 349 -72 174
-131 320 -131 324 0 4 30 39 68 78 110 117 152 219 152 371 0 160 -47 273
-159 386 -85 84 -142 117 -266 150 -74 20 -110 22 -472 27 l-393 4 0 -861z"/>
</g>
</svg>
